<?xml version="1.0" encoding="UTF-8"?>
<svg version="1.1" xmlns="http://www.w3.org/2000/svg" width="360" height="180">
<path d="M0 0 C118.8 0 237.6 0 360 0 C360 59.4 360 118.8 360 180 C241.2 180 122.4 180 0 180 C0 120.6 0 61.2 0 0 Z " fill="#EFF0F0" transform="translate(0,0)"/>
<path d="M0 0 C118.8 0 237.6 0 360 0 C360 24.75 360 49.5 360 75 C355.05 75 350.1 75 345 75 C345 78.3 345 81.6 345 85 C345.66 84.67 346.32 84.34 347 84 C350.97288453 83.55856839 352.53956856 83.67969987 355.875 86 C356.57625 86.66 357.2775 87.32 358 88 C356.69114898 93.56261684 352.61114029 96.1146132 348 99 C344.14089539 100.2863682 340.34078082 100.5226722 336.3125 100.8125 C335.53455078 100.88919922 334.75660156 100.96589844 333.95507812 101.04492188 C326.43021997 101.56582532 321.86021938 98.92514766 315.75 94.8125 C308.65932286 87.5606711 306.92981952 77.36043132 306.5 67.5625 C306.63607018 60.3436188 307.87077119 56.0994654 313 51 C318.21033463 46.01620165 322.7219806 42.5166394 330.125 42.375 C335.22248754 42.73435291 340.06803397 43.68480906 345 45 C345 40.05 345 35.1 345 30 C340.05 30 335.1 30 330 30 C330 25.05 330 20.1 330 15 C325.05 15 320.1 15 315 15 C315 19.95 315 24.9 315 30 C310.38 30 305.76 30 301 30 C301.00785522 32.85253418 301.00785522 32.85253418 301.01586914 35.76269531 C301.03809222 44.5917893 301.05298452 53.42088328 301.0625 62.25 C301.06335602 63.03871365 301.06421204 63.82742729 301.06509399 64.64004135 C301.08761948 88.10923419 300.94151822 111.54610874 300 135 C304.95 135 309.9 135 315 135 C315 130.05 315 125.1 315 120 C319.95 120 324.9 120 330 120 C330 124.95 330 129.9 330 135 C334.95 135 339.9 135 345 135 C345 139.95 345 144.9 345 150 C340.38 150.33 335.76 150.66 331 151 C330.67 155.62 330.34 160.24 330 165 C325.05 165 320.1 165 315 165 C315 160.05 315 155.1 315 150 C307.73019678 149.8297353 307.73019678 149.8297353 301 152 C300.76518307 154.18292774 300.58636677 156.37203174 300.4375 158.5625 C300.293125 160.686875 300.14875 162.81125 300 165 C295.05 165 290.1 165 285 165 C285 160.05 285 155.1 285 150 C282.1228125 150.2165625 282.1228125 150.2165625 279.1875 150.4375 C277.56908203 150.55931641 277.56908203 150.55931641 275.91796875 150.68359375 C272.94010095 150.90212461 272.94010095 150.90212461 270 152 C270 156.29 270 160.58 270 165 C265.05 165 260.1 165 255 165 C255 160.05 255 155.1 255 150 C251.37 150 247.74 150 244 150 C244 150.66 244 151.32 244 152 C239.05 152 234.1 152 229 152 C229.33 149.03 229.66 146.06 230 143 C228.68 142.34 227.36 141.68 226 141 C225.67 140.01 225.34 139.02 225 138 C226.0725 137.79375 227.145 137.5875 228.25 137.375 C232.70591174 135.7411657 233.77777608 134.08889201 236 130 C237.70840281 131.63412443 238.93453047 132.86906094 240 135 C244.95 135 249.9 135 255 135 C254.67 132.36 254.34 129.72 254 127 C252.53626953 126.83564453 252.53626953 126.83564453 251.04296875 126.66796875 C249.13451172 126.43013672 249.13451172 126.43013672 247.1875 126.1875 C245.29064453 125.96126953 245.29064453 125.96126953 243.35546875 125.73046875 C239.9577273 124.99079744 239.10987657 124.57873803 237 122 C236.05125 121.5875 235.1025 121.175 234.125 120.75 C230.32470838 118.6218367 227.82337102 115.99145895 226 112 C227 109 227 109 230.3125 107.25 C234.8237486 105.72076319 234.8237486 105.72076319 238 107 C239.20828593 108.14512553 240.37209207 109.33812626 241.5 110.5625 C245.01467026 113.76782662 247.37280687 114.53655968 252.125 114.625 C256.68019046 114.32592184 260.32592187 113.900588 264 111 C266.6870679 105.99228256 266.19694843 100.53643919 266 95 C264.906875 95.639375 263.81375 96.27875 262.6875 96.9375 C257.05159478 100.23397286 252.38369331 100.18574299 246 100 C244.824375 99.979375 243.64875 99.95875 242.4375 99.9375 C235.82206194 98.13328962 230.77675977 93.63488961 227.0625 87.9375 C223.09430182 80.79474327 221.76712556 74.3372539 223.6171875 66.328125 C226.47278031 57.38228558 231.58450528 49.49278831 240 45 C248.33929836 41.47896291 254.90575801 42.91875995 263 46 C263.99 46.33 264.98 46.66 266 47 C266.33 46.34 266.66 45.68 267 45 C269.06640625 44.5859375 269.06640625 44.5859375 271.5625 44.375 C272.38878906 44.30023438 273.21507812 44.22546875 274.06640625 44.1484375 C274.70449219 44.09945312 275.34257812 44.05046875 276 44 C274.02 43.67 272.04 43.34 270 43 C270 38.71 270 34.42 270 30 C265.05 30 260.1 30 255 30 C255 25.05 255 20.1 255 15 C250.05 15 245.1 15 240 15 C240 19.95 240 24.9 240 30 C235.05 30 230.1 30 225 30 C225 34.95 225 39.9 225 45 C220.05 45 215.1 45 210 45 C210 40.05 210 35.1 210 30 C205.05 30 200.1 30 195 30 C195 25.05 195 20.1 195 15 C190.05 15 185.1 15 180 15 C180 19.95 180 24.9 180 30 C175.05 30 170.1 30 165 30 C165 34.95 165 39.9 165 45 C160.05 45 155.1 45 150 45 C150 40.05 150 35.1 150 30 C145.05 30 140.1 30 135 30 C135 25.05 135 20.1 135 15 C130.05 15 125.1 15 120 15 C120 19.95 120 24.9 120 30 C115.05 30 110.1 30 105 30 C105 34.95 105 39.9 105 45 C100.05 45 95.1 45 90 45 C90 46.65 90 48.3 90 50 C88.02 50.33 86.04 50.66 84 51 C85.11375 51.144375 86.2275 51.28875 87.375 51.4375 C91 52 91 52 93 53 C93 55.31 93 57.62 93 60 C94.32 60 95.64 60 97 60 C96.98428955 60.55872803 96.9685791 61.11745605 96.95239258 61.69311523 C96.88925076 64.2744699 96.85076296 66.8556613 96.8125 69.4375 C96.78736328 70.31599609 96.76222656 71.19449219 96.73632812 72.09960938 C96.67240631 77.8738797 96.89703377 83.94393463 100 89 C101.95906169 89.63421723 101.95906169 89.63421723 104 90 C105.66666667 91.66666667 107.33333333 93.33333333 109 95 C115.7201456 100.52545305 123.74643077 99.79925868 132 99 C137.52144684 97.72692029 141.31741537 95.86513122 145.125 91.6875 C147.83913468 89.05261013 149.08324429 88.99665718 152.98828125 88.83984375 C157.01834852 89.03130542 161.00128493 89.47195839 165 90 C165 94.95 165 99.9 165 105 C160.05 105 155.1 105 150 105 C150 109.95 150 114.9 150 120 C145.05 120 140.1 120 135 120 C135 115.05 135 110.1 135 105 C130.05 105 125.1 105 120 105 C120 109.95 120 114.9 120 120 C115.05 120 110.1 120 105 120 C105 115.05 105 110.1 105 105 C100.05 105 95.1 105 90 105 C90 113.58 90 122.16 90 131 C89.34 131.33 88.68 131.66 88 132 C87.21655744 133.99291777 86.51983635 136.02051823 85.875 138.0625 C85.52179688 139.16722656 85.16859375 140.27195313 84.8046875 141.41015625 C84.53914063 142.26480469 84.27359375 143.11945313 84 144 C83.01 143.67 82.02 143.34 81 143 C80.03979704 140.19051726 79.4716702 137.36914329 78.84375 134.46875 C78.5653125 133.6540625 78.286875 132.839375 78 132 C77.01 131.67 76.02 131.34 75 131 C75 127.37 75 123.74 75 120 C70.05 120 65.1 120 60 120 C60 115.05 60 110.1 60 105 C55.05 105 50.1 105 45 105 C45 109.95 45 114.9 45 120 C40.05 120 35.1 120 30 120 C30 115.05 30 110.1 30 105 C25.05 105 20.1 105 15 105 C15 100.05 15 95.1 15 90 C10.05 90 5.1 90 0 90 C0 60.3 0 30.6 0 0 Z " fill="#F7F8F9" transform="translate(0,0)"/>
<path d="M0 0 C4.95 0 9.9 0 15 0 C15 4.95 15 9.9 15 15 C19.95 15 24.9 15 30 15 C30.78299608 18.9149804 31.10965159 21.89891782 31.0625 25.8125 C31.05347656 26.78832031 31.04445313 27.76414062 31.03515625 28.76953125 C31.01775391 29.87361328 31.01775391 29.87361328 31 31 C30.41734375 30.855625 29.8346875 30.71125 29.234375 30.5625 C17.42655004 27.82616419 17.42655004 27.82616419 5.96875 30.5078125 C0.48756952 34.26507331 -5.00897029 38.45056016 -7 45 C-8.34793019 55.50160154 -7.28109466 67.81324209 -1.11328125 76.7265625 C0.85922137 78.84855238 2.58467714 80.27953865 5.0625 81.75 C5.73410156 82.15734375 6.40570313 82.5646875 7.09765625 82.984375 C11.60151781 85.38890068 15.74505054 85.04823526 20.6875 84.8125 C21.85442383 84.78446289 21.85442383 84.78446289 23.04492188 84.75585938 C30.07701905 84.42155617 35.53867728 82.46132272 40.5625 77.4375 C41.036875 76.633125 41.51125 75.82875 42 75 C41.24849977 71.72226496 41.24849977 71.72226496 38 70 C35.94290404 69.75944532 35.94290404 69.75944532 33.8125 69.875 C32.554375 69.91625 31.29625 69.9575 30 70 C30 66.7 30 63.4 30 60 C34.95 60 39.9 60 45 60 C45 94.65 45 129.3 45 165 C-29.25 165 -103.5 165 -180 165 C-180 137 -180 137 -178 135 C-178 135.99 -178 136.98 -178 138 C-175.69 138 -173.38 138 -171 138 C-170.95101562 137.39671875 -170.90203125 136.7934375 -170.8515625 136.171875 C-170.77679688 135.37265625 -170.70203125 134.5734375 -170.625 133.75 C-170.55539063 132.96109375 -170.48578125 132.1721875 -170.4140625 131.359375 C-169.98492887 128.914123 -169.21399362 127.15163097 -168 125 C-167.34 125 -166.68 125 -166 125 C-165.54560547 126.28197266 -165.54560547 126.28197266 -165.08203125 127.58984375 C-164.66308594 128.69457031 -164.24414062 129.79929688 -163.8125 130.9375 C-163.20341797 132.59072266 -163.20341797 132.59072266 -162.58203125 134.27734375 C-161.26277925 137.2420857 -161.26277925 137.2420857 -158.32421875 137.87890625 C-157.55722656 137.91886719 -156.79023438 137.95882812 -156 138 C-155.67 136.68 -155.34 135.36 -155 134 C-153.35 134.33 -151.7 134.66 -150 135 C-150 139.95 -150 144.9 -150 150 C-145.05 150 -140.1 150 -135 150 C-135.103125 147.916875 -135.20625 145.83375 -135.3125 143.6875 C-135.48828125 140.13671875 -135.48828125 140.13671875 -135 137 C-130.72251238 133.39595766 -127.32881942 133.65056922 -122 134 C-121.34 134.33 -120.68 134.66 -120 135 C-120 139.95 -120 144.9 -120 150 C-115.05 150 -110.1 150 -105 150 C-105 145.38 -105 140.76 -105 136 C-103.35 136.33 -101.7 136.66 -100 137 C-100.03480469 136.39671875 -100.06960937 135.7934375 -100.10546875 135.171875 C-100.32933105 128.5626072 -100.32933105 128.5626072 -98.5 125.4375 C-98.005 124.963125 -97.51 124.48875 -97 124 C-97.94875 123.54625 -98.8975 123.0925 -99.875 122.625 C-103 121 -103 121 -105 119 C-105.28034724 114.32380812 -105.08523334 109.68783389 -105 105 C-109.95 105 -114.9 105 -120 105 C-120 100.05 -120 95.1 -120 90 C-115.05 90 -110.1 90 -105 90 C-105.04125 87.89625 -105.0825 85.7925 -105.125 83.625 C-105.1953125 80.0390625 -105.1953125 80.0390625 -105 77 C-103 75 -103 75 -99.9609375 74.8046875 C-94.98046875 74.90234375 -94.98046875 74.90234375 -90 75 C-90 79.95 -90 84.9 -90 90 C-86.37 90 -82.74 90 -79 90 C-82.2104799 92.40785992 -84.35008834 93.68197635 -88 95 C-85.98408381 101.41427878 -81.73175611 104.81569105 -76 108 C-75.67 108.33 -75.34 108.66 -75 109 C-72.67258011 109.37238718 -70.33764285 109.69836866 -68 110 C-61.11111111 110.88888889 -61.11111111 110.88888889 -60 112 C-60 114.64 -60 117.28 -60 120 C-67.92 120.495 -67.92 120.495 -76 121 C-76.66 119.35 -77.32 117.7 -78 116 C-78.53625 116.78375 -79.0725 117.5675 -79.625 118.375 C-82.3234569 121.35750499 -84.13890252 122.07669408 -88 123 C-88.66 123 -89.32 123 -90 123 C-88.7315625 123.9590625 -88.7315625 123.9590625 -87.4375 124.9375 C-85 128 -85 128 -84.890625 130.3359375 C-85.16088149 132.59044562 -85.5121463 134.7829223 -86 137 C-85.42378906 136.83757812 -84.84757812 136.67515625 -84.25390625 136.5078125 C-79.8025641 135.50491046 -75.34153355 135.55282215 -71 137 C-71 136.34 -71 135.68 -71 135 C-67.37 135 -63.74 135 -60 135 C-60 139.95 -60 144.9 -60 150 C-55.05 150 -50.1 150 -45 150 C-45.061875 147.89625 -45.12375 145.7925 -45.1875 143.625 C-45.29296875 140.0390625 -45.29296875 140.0390625 -45 137 C-40.25368713 133.83579142 -35.63243123 134.87887245 -30 135 C-30 139.95 -30 144.9 -30 150 C-25.05 150 -20.1 150 -15 150 C-15.04125 147.89625 -15.0825 145.7925 -15.125 143.625 C-15.1953125 140.0390625 -15.1953125 140.0390625 -15 137 C-13 135 -13 135 -9.9609375 134.8046875 C-4.98046875 134.90234375 -4.98046875 134.90234375 0 135 C0 139.95 0 144.9 0 150 C4.95 150 9.9 150 15 150 C14.9690625 146.5659375 14.9690625 146.5659375 14.9375 143.0625 C14.91629132 140.70833668 14.92728259 138.35313555 15 136 C16 135 16 135 19.16015625 134.90234375 C24.58007812 134.95117188 24.58007812 134.95117188 30 135 C30 130.05 30 125.1 30 120 C25.05 120 20.1 120 15 120 C15 115.05 15 110.1 15 105 C10.05 105 5.1 105 0 105 C0 109.95 0 114.9 0 120 C-4.95 120 -9.9 120 -15 120 C-15.15648264 95.74519029 -14.8652034 71.50147955 -14.5 47.25 C-14.48206327 46.05859091 -14.48206327 46.05859091 -14.46376419 44.84311295 C-14.31358995 34.89533774 -14.15846107 24.9476467 -14 15 C-9.38 15 -4.76 15 0 15 C0 10.05 0 5.1 0 0 Z " fill="#F1F0F0" transform="translate(315,15)"/>
<path d="M0 0 C4.95 0 9.9 0 15 0 C15 4.95 15 9.9 15 15 C19.95 15 24.9 15 30 15 C30 19.95 30 24.9 30 30 C34.95 30 39.9 30 45 30 C45 25.05 45 20.1 45 15 C49.95 15 54.9 15 60 15 C60 10.05 60 5.1 60 0 C64.95 0 69.9 0 75 0 C75 4.95 75 9.9 75 15 C79.95 15 84.9 15 90 15 C90 19.95 90 24.9 90 30 C94.95 30 99.9 30 105 30 C105 25.05 105 20.1 105 15 C109.95 15 114.9 15 120 15 C120 10.05 120 5.1 120 0 C124.95 0 129.9 0 135 0 C135 4.95 135 9.9 135 15 C139.95 15 144.9 15 150 15 C150 19.29 150 23.58 150 28 C152.97 28.33 155.94 28.66 159 29 C159 29.33 159 29.66 159 30 C155.04 30 151.08 30 147 30 C146.67 30.99 146.34 31.98 146 33 C142 31.66666667 138 30.33333333 134 29 C127.29202266 28.41158094 121.796583 29.43924187 116 33 C108.75844636 39.70652476 104.05952088 48.63100445 103.5 58.5625 C103.85900268 65.70408894 106.95076837 72.95076837 112 78 C116.47147231 81.92371695 119.92064826 83.69088042 126 84 C126.79792969 84.05027344 127.59585938 84.10054688 128.41796875 84.15234375 C134.15354227 84.36927164 137.91366078 83.6448964 143 81 C144.33238367 80.33143738 145.66551327 79.66435487 147 79 C147.59778598 91.24354244 147.59778598 91.24354244 144 97 C139.55031362 100.5369302 134.49220203 100.6721085 128.984375 100.5625 C124.01643376 99.62613411 121.25321527 96.68697731 118 93 C115.41073669 90.41073669 113.97294721 90.62601957 110.375 90.375 C108.60125 90.25125 106.8275 90.1275 105 90 C105 85.05 105 80.1 105 75 C94.43825313 75.18938002 94.43825313 75.18938002 85.796875 80.5 C79.68622655 85.60106305 72.38154298 85.57483153 64.703125 85.421875 C58.34909267 84.6979979 53.40557638 82.24687516 48.75 77.8984375 C45.06575265 75.35505084 42.02213474 75.09435494 37.625 74.875 C36.47729126 74.81276245 36.47729126 74.81276245 35.30639648 74.74926758 C31.10847536 74.6567626 28.24672863 74.65672817 25.0625 77.6875 C24.5675 78.24050781 24.0725 78.79351562 23.5625 79.36328125 C18.98847877 84.15456849 12.40648949 85.20133224 6.04345703 85.52270508 C-2.36764568 85.6816443 -8.38510054 84.1148652 -14.73046875 78.45703125 C-16 77 -16 77 -16 75 C-16.61359375 74.90976563 -17.2271875 74.81953125 -17.859375 74.7265625 C-20 74 -20 74 -21.265625 72.4609375 C-25.29308594 63.92655598 -25.13595583 54.09951916 -23 45 C-25.97 44.505 -25.97 44.505 -29 44 C-29 41.69 -29 39.38 -29 37 C-42.86 37 -56.72 37 -71 37 C-71 36.67 -71 36.34 -71 36 C-57.47 35.67 -43.94 35.34 -30 35 C-30 33.35 -30 31.7 -30 30 C-25.05 30 -20.1 30 -15 30 C-15 25.05 -15 20.1 -15 15 C-10.05 15 -5.1 15 0 15 C0 10.05 0 5.1 0 0 Z " fill="#ECEDED" transform="translate(120,15)"/>
<path d="M0 0 C0.99 0.66 1.98 1.32 3 2 C1.46583702 5.98882376 -1.4247074 9.64783382 -5 12 C-8.42958227 11.6055026 -9.62861319 10.37138681 -12 8 C-20.37880376 4.03109296 -31.45148439 3.56201632 -40.47265625 5.54296875 C-47.59736632 8.65911504 -54.78911759 15.62718808 -57.765625 22.77734375 C-59.23443545 27.13206723 -59.49903889 31.24286814 -59.4375 35.8125 C-59.43065186 36.59641113 -59.42380371 37.38032227 -59.41674805 38.18798828 C-59.20950872 45.7246693 -58.1581756 52.92280327 -52.5625 58.375 C-51.716875 58.91125 -50.87125 59.4475 -50 60 C-49.21625 60.845625 -48.4325 61.69125 -47.625 62.5625 C-40.95552473 68.75558418 -32.67934031 69.30390763 -24.00390625 69.21875 C-16.67348218 68.68493498 -10.1814468 65.38907807 -5.14453125 60.0234375 C-0.74127653 54.73953183 0.19057524 52.23769902 2 45 C-7.9 45 -17.8 45 -28 45 C-28 41.04 -28 37.08 -28 33 C-22.05517888 32.97532797 -16.1103874 32.95715337 -10.16552734 32.94506836 C-8.14208457 32.94003169 -6.11864544 32.93320211 -4.09521484 32.92456055 C-1.19107157 32.91246588 1.71302369 32.90676512 4.6171875 32.90234375 C5.52556366 32.89718246 6.43393982 32.89202118 7.36984253 32.88670349 C8.21056305 32.88662796 9.05128357 32.88655243 9.91748047 32.88647461 C10.65916473 32.884254 11.400849 32.88203339 12.16500854 32.87974548 C14 33 14 33 16 34 C16 36.31 16 38.62 16 41 C17.32 41 18.64 41 20 41 C19.98428955 41.55872803 19.9685791 42.11745605 19.95239258 42.69311523 C19.88925076 45.2744699 19.85076296 47.8556613 19.8125 50.4375 C19.78736328 51.31599609 19.76222656 52.19449219 19.73632812 53.09960938 C19.67240631 58.8738797 19.89703377 64.94393463 23 70 C24.95906169 70.63421723 24.95906169 70.63421723 27 71 C28.66666667 72.66666667 30.33333333 74.33333333 32 76 C38.7201456 81.52545305 46.74643077 80.79925868 55 80 C60.52144684 78.72692029 64.31741537 76.86513122 68.125 72.6875 C70.83913468 70.05261013 72.08324429 69.99665718 75.98828125 69.83984375 C80.01834852 70.03130542 84.00128493 70.47195839 88 71 C88 75.95 88 80.9 88 86 C83.05 86 78.1 86 73 86 C73 90.95 73 95.9 73 101 C68.05 101 63.1 101 58 101 C58 96.05 58 91.1 58 86 C53.05 86 48.1 86 43 86 C43 90.95 43 95.9 43 101 C38.05 101 33.1 101 28 101 C28 96.05 28 91.1 28 86 C23.05 86 18.1 86 13 86 C13 94.58 13 103.16 13 112 C12.01 112.495 12.01 112.495 11 113 C10.21655744 114.99291777 9.51983635 117.02051823 8.875 119.0625 C8.52179688 120.16722656 8.16859375 121.27195313 7.8046875 122.41015625 C7.53914063 123.26480469 7.27359375 124.11945313 7 125 C6.01 124.67 5.02 124.34 4 124 C3.03979704 121.19051726 2.4716702 118.36914329 1.84375 115.46875 C1.5653125 114.6540625 1.286875 113.839375 1 113 C-0.485 112.505 -0.485 112.505 -2 112 C-2 108.37 -2 104.74 -2 101 C-6.95 101 -11.9 101 -17 101 C-17 96.05 -17 91.1 -17 86 C-21.95 86 -26.9 86 -32 86 C-32 90.95 -32 95.9 -32 101 C-36.95 101 -41.9 101 -47 101 C-47 96.05 -47 91.1 -47 86 C-51.95 86 -56.9 86 -62 86 C-62 81.05 -62 76.1 -62 71 C-66.95 71 -71.9 71 -77 71 C-77 66.05 -77 61.1 -77 56 C-75.02 56.33 -73.04 56.66 -71 57 C-71.144375 56.23558594 -71.28875 55.47117187 -71.4375 54.68359375 C-74.21103056 38.67801114 -74.58343866 22.92250701 -65 9 C-63.19494612 6.9411414 -61.23820881 5.12348174 -59.1875 3.3125 C-58.4440332 2.62317383 -58.4440332 2.62317383 -57.68554688 1.91992188 C-40.75654546 -13.3532184 -18.64740561 -11.10185508 0 0 Z " fill="#EDEDEF" transform="translate(77,19)"/>
<path d="M0 0 C24.75 0 49.5 0 75 0 C75 24.75 75 49.5 75 75 C70.05 75 65.1 75 60 75 C60 78.3 60 81.6 60 85 C60.66 84.67 61.32 84.34 62 84 C65.97288453 83.55856839 67.53956856 83.67969987 70.875 86 C71.57625 86.66 72.2775 87.32 73 88 C71.69114898 93.56261684 67.61114029 96.1146132 63 99 C59.14089539 100.2863682 55.34078082 100.5226722 51.3125 100.8125 C50.53455078 100.88919922 49.75660156 100.96589844 48.95507812 101.04492188 C41.43021997 101.56582532 36.86021938 98.92514766 30.75 94.8125 C23.65932286 87.5606711 21.92981952 77.36043132 21.5 67.5625 C21.63607018 60.3436188 22.87077119 56.0994654 28 51 C33.21033463 46.01620165 37.7219806 42.5166394 45.125 42.375 C50.22248754 42.73435291 55.06803397 43.68480906 60 45 C60 40.05 60 35.1 60 30 C55.05 30 50.1 30 45 30 C45 25.05 45 20.1 45 15 C40.05 15 35.1 15 30 15 C30 19.95 30 24.9 30 30 C25.38 30 20.76 30 16 30 C16.00785522 33.08819092 16.00785522 33.08819092 16.01586914 36.23876953 C16.03246204 43.05203293 16.04349406 49.86529724 16.05181217 56.67857552 C16.05702381 60.80818885 16.06409018 64.93778142 16.07543945 69.06738281 C16.0863295 73.0549833 16.09228979 77.04256386 16.09487724 81.03017807 C16.09672048 82.54915556 16.10031982 84.06813201 16.10573006 85.58710098 C16.11302172 87.71971213 16.11398752 89.85224161 16.11352539 91.98486328 C16.115746 93.1973172 16.11796661 94.40977112 16.12025452 95.65896606 C16 99 16 99 15 105 C10.05 105 5.1 105 0 105 C0 70.35 0 35.7 0 0 Z " fill="#EEEFEF" transform="translate(285,0)"/>
<path d="M0 0 C4.95 0 9.9 0 15 0 C15 4.95 15 9.9 15 15 C19.95 15 24.9 15 30 15 C30 19.95 30 24.9 30 30 C34.95 30 39.9 30 45 30 C45 25.05 45 20.1 45 15 C49.95 15 54.9 15 60 15 C60 19.95 60 24.9 60 30 C64.95 30 69.9 30 75 30 C75 33.63 75 37.26 75 41 C73.68 41 72.36 41 71 41 C71.495 43.475 71.495 43.475 72 46 C68.55843982 45.56980498 66.0526778 44.53939839 63.0625 42.875 C60.24564237 41.42678506 59.01414501 41.00027202 55.75 40.9375 C52.08067408 42.35519411 50.88044677 43.52840597 49 47 C48.43052493 51.4996551 48.78420525 55.64093102 50 60 C56.32456223 61.84466398 60.96943332 62.56299084 67 60 C69.69218483 59.82321488 72.29764701 59.90839481 75 60 C75 64.95 75 69.9 75 75 C79.95 75 84.9 75 90 75 C90 70.05 90 65.1 90 60 C91.98 60 93.96 60 96 60 C96 55.38 96 50.76 96 46 C96.33 46 96.66 46 97 46 C97 51.61 97 57.22 97 63 C98.98 63 100.96 63 103 63 C103 62.01 103 61.02 103 60 C103.66 60 104.32 60 105 60 C105 64.95 105 69.9 105 75 C109.95 75 114.9 75 120 75 C120 79.95 120 84.9 120 90 C80.4 90 40.8 90 0 90 C0 60.3 0 30.6 0 0 Z " fill="#F6F6F7" transform="translate(0,90)"/>
<path d="M0 0 C0.99 0.33 1.98 0.66 3 1 C3.33 0.34 3.66 -0.32 4 -1 C7.96 -1 11.92 -1 16 -1 C16.11365717 6.48528657 16.20508952 13.97024435 16.25906086 21.4561882 C16.28498499 24.93352461 16.32005929 28.41023233 16.37719727 31.88720703 C16.44269688 35.89881893 16.46632183 39.90978659 16.48828125 43.921875 C16.51408768 45.15049255 16.5398941 46.37911011 16.56648254 47.6449585 C16.56979732 58.00491175 13.7142703 66.36041401 8 75 C1.00869256 79.30971006 -5.923347 80.77863158 -14 80 C-14.83015625 79.95488281 -15.6603125 79.90976563 -16.515625 79.86328125 C-20.96141649 79.54060284 -22.9101957 79.32683038 -26 76 C-26.94875 75.5875 -27.8975 75.175 -28.875 74.75 C-32.67529162 72.6218367 -35.17662898 69.99145895 -37 66 C-36 63 -36 63 -32.6875 61.25 C-28.1762514 59.72076319 -28.1762514 59.72076319 -25 61 C-23.79171407 62.14512553 -22.62790793 63.33812626 -21.5 64.5625 C-17.98532974 67.76782662 -15.62719313 68.53655968 -10.875 68.625 C-6.31980954 68.32592184 -2.67407813 67.900588 1 65 C3.6870679 59.99228256 3.19694843 54.53643919 3 49 C1.906875 49.639375 0.81375 50.27875 -0.3125 50.9375 C-5.94840522 54.23397286 -10.61630669 54.18574299 -17 54 C-18.175625 53.979375 -19.35125 53.95875 -20.5625 53.9375 C-27.17793806 52.13328962 -32.22324023 47.63488961 -35.9375 41.9375 C-39.90569818 34.79474327 -41.23287444 28.3372539 -39.3828125 20.328125 C-36.52721969 11.38228558 -31.41549472 3.49278831 -23 -1 C-14.66070164 -4.52103709 -8.09424199 -3.08124005 0 0 Z " fill="#3275F0" transform="translate(263,46)"/>
<path d="M0 0 C4.95 0 9.9 0 15 0 C15 4.95 15 9.9 15 15 C19.95 15 24.9 15 30 15 C30 10.05 30 5.1 30 0 C34.95 0 39.9 0 45 0 C45 4.95 45 9.9 45 15 C49.95 15 54.9 15 60 15 C60 19.95 60 24.9 60 30 C55.38 30.33 50.76 30.66 46 31 C45.67 35.62 45.34 40.24 45 45 C40.05 45 35.1 45 30 45 C30 40.05 30 35.1 30 30 C22.73019678 29.8297353 22.73019678 29.8297353 16 32 C15.76518307 34.18292774 15.58636677 36.37203174 15.4375 38.5625 C15.293125 40.686875 15.14875 42.81125 15 45 C10.05 45 5.1 45 0 45 C0 40.05 0 35.1 0 30 C-1.918125 30.144375 -3.83625 30.28875 -5.8125 30.4375 C-6.89144531 30.51871094 -7.97039062 30.59992188 -9.08203125 30.68359375 C-12.05989905 30.90212461 -12.05989905 30.90212461 -15 32 C-15 36.29 -15 40.58 -15 45 C-19.95 45 -24.9 45 -30 45 C-30 40.05 -30 35.1 -30 30 C-33.63 30 -37.26 30 -41 30 C-41 30.66 -41 31.32 -41 32 C-45.95 32 -50.9 32 -56 32 C-55.505 27.545 -55.505 27.545 -55 23 C-56.32 22.34 -57.64 21.68 -59 21 C-59.33 20.01 -59.66 19.02 -60 18 C-58.9275 17.79375 -57.855 17.5875 -56.75 17.375 C-52.29408826 15.7411657 -51.22222392 14.08889201 -49 10 C-47.29159719 11.63412443 -46.06546953 12.86906094 -45 15 C-40.05 15 -35.1 15 -30 15 C-30.33 12.03 -30.66 9.06 -31 6 C-30.34773438 5.80664062 -29.69546875 5.61328125 -29.0234375 5.4140625 C-28.14945312 5.15367188 -27.27546875 4.89328125 -26.375 4.625 C-25.51648438 4.36976562 -24.65796875 4.11453125 -23.7734375 3.8515625 C-20.83381156 2.94897313 -17.91726952 1.97242317 -15 1 C-15 5.62 -15 10.24 -15 15 C-10.05 15 -5.1 15 0 15 C0 10.05 0 5.1 0 0 Z " fill="#EEEDE9" transform="translate(285,120)"/>
<path d="M0 0 C0.99 0.66 1.98 1.32 3 2 C1.46583702 5.98882376 -1.4247074 9.64783382 -5 12 C-8.42958227 11.6055026 -9.62861319 10.37138681 -12 8 C-20.37880376 4.03109296 -31.45148439 3.56201632 -40.47265625 5.54296875 C-47.59736632 8.65911504 -54.78911759 15.62718808 -57.765625 22.77734375 C-59.23443545 27.13206723 -59.49903889 31.24286814 -59.4375 35.8125 C-59.43065186 36.59641113 -59.42380371 37.38032227 -59.41674805 38.18798828 C-59.20950872 45.7246693 -58.1581756 52.92280327 -52.5625 58.375 C-51.716875 58.91125 -50.87125 59.4475 -50 60 C-49.21625 60.845625 -48.4325 61.69125 -47.625 62.5625 C-40.95552473 68.75558418 -32.67934031 69.30390763 -24.00390625 69.21875 C-16.67348218 68.68493498 -10.1814468 65.38907807 -5.14453125 60.0234375 C-0.74127653 54.73953183 0.19057524 52.23769902 2 45 C-7.9 45 -17.8 45 -28 45 C-28 41.04 -28 37.08 -28 33 C-14.14 33 -0.28 33 14 33 C14 56.45384615 14 56.45384615 11.4765625 60.35546875 C10.86554688 60.96003906 10.25453125 61.56460938 9.625 62.1875 C7.57762591 64.25665466 6.02353907 65.95783949 4.59765625 68.51171875 C0.37317695 75.0911645 -8.69673291 78.84493758 -16 81 C-18.75129962 81.496136 -21.23431119 81.83702191 -24 82 C-24.845625 82.05285156 -25.69125 82.10570313 -26.5625 82.16015625 C-40.11176217 82.6028168 -48.99476408 78.06796262 -59.03515625 69.203125 C-60.77914569 67.5319615 -62.39982559 65.80871845 -64 64 C-64.54527344 63.40832031 -65.09054688 62.81664063 -65.65234375 62.20703125 C-72.74901921 53.79165815 -73.58531436 43.42530944 -73.35546875 32.75390625 C-72.25335375 21.11508735 -67.93791 11.0399904 -59.1875 3.3125 C-58.69185547 2.85294922 -58.19621094 2.39339844 -57.68554688 1.91992188 C-40.75654546 -13.3532184 -18.64740561 -11.10185508 0 0 Z " fill="#3275F0" transform="translate(77,19)"/>
<path d="M0 0 C0.80308594 -0.020625 1.60617188 -0.04125 2.43359375 -0.0625 C7.22961011 -0.09410472 10.18174746 0.25369341 14.125 3.25 C15.1459375 3.92289063 15.1459375 3.92289063 16.1875 4.609375 C22.8280925 9.37560671 26.81580204 13.57440545 28.4375 21.75 C29.87084975 31.99218854 28.57229817 39.77487938 23 48.625 C15.18804518 55.7576544 6.33020427 57.80974233 -4 57.59765625 C-9.52203454 57.10223178 -13.32872947 55.31212217 -17.875 52.25 C-19.545625 51.198125 -19.545625 51.198125 -21.25 50.125 C-27.74635839 43.00994082 -29.20430445 32.59547036 -29.0234375 23.2265625 C-28.55813502 17.03069262 -26.43213155 12.41862034 -21.875 8.25 C-14.34559408 2.41651459 -9.42761498 0.05995304 0 0 Z " fill="#FAB10A" transform="translate(188.875,42.75)"/>
<path d="M0 0 C1.15242188 0.03480469 1.15242188 0.03480469 2.328125 0.0703125 C9.48510123 1.00252369 15.37733726 7.85817668 20 13 C23.61236835 19.74454272 24.02839961 29.13251427 22.0859375 36.4375 C20.8766093 39.40517657 19.53744948 42.19002878 18 45 C17.401875 46.155 16.80375 47.31 16.1875 48.5 C13.25374233 51.85286591 10.07218228 53.33169441 6 55 C5.25105469 55.35707031 4.50210938 55.71414062 3.73046875 56.08203125 C-2.72281477 58.25159009 -11.53019268 58.19807424 -17.94140625 55.984375 C-21.40762967 54.08851639 -24.39284873 51.99220746 -27 49 C-27 48.34 -27 47.68 -27 47 C-27.92039062 46.86464844 -27.92039062 46.86464844 -28.859375 46.7265625 C-31 46 -31 46 -32.265625 44.4609375 C-35.91381424 36.73025077 -36.28964862 28.10717902 -34.52734375 19.76171875 C-31.78690661 12.62345434 -25.61580218 5.24983247 -19.1875 1.25 C-13.16599763 -1.13514055 -6.3336572 -0.34572365 0 0 Z " fill="#E63629" transform="translate(131,43)"/>
<path d="M0 0 C4.95 0 9.9 0 15 0 C15 4.95 15 9.9 15 15 C19.95 15 24.9 15 30 15 C30 18.3 30 21.6 30 25 C30.763125 25.268125 31.52625 25.53625 32.3125 25.8125 C36.52744887 27.67491927 36.52744887 27.67491927 38 30 C38.24759992 32.71821651 38.13477933 35.25948688 38 38 C33.38 38.66 28.76 39.32 24 40 C24.66 40.99 25.32 41.98 26 43 C29.71640139 43.27028374 32.457201 43.180933 36 42 C36.495 43.98 36.495 43.98 37 46 C32.25 49 32.25 49 30 49 C30 52.63 30 56.26 30 60 C25.05 60 20.1 60 15 60 C15 55.05 15 50.1 15 45 C14.34 45 13.68 45 13 45 C13 45.99 13 46.98 13 48 C11.02 48 9.04 48 7 48 C6.67 47.01 6.34 46.02 6 45 C4.02 45 2.04 45 0 45 C0 49.95 0 54.9 0 60 C-4.95 60 -9.9 60 -15 60 C-15 55.05 -15 50.1 -15 45 C-16.670625 45.309375 -18.34125 45.61875 -20.0625 45.9375 C-21.06925781 46.11539063 -22.07601562 46.29328125 -23.11328125 46.4765625 C-25.333688 46.87918023 -27.54455882 47.33465441 -29.75 47.8125 C-33.94306885 48.05440782 -36.37188446 47.06304609 -40 45 C-42.62198136 40.88348926 -42.79458466 36.73474159 -42 32 C-40.64782459 29.20279594 -39.44066407 28.12231658 -37 26 C-31.78397459 24.40703769 -28.90948343 25.54525828 -24.125 27.9375 C-22.97257812 28.50339844 -21.82015625 29.06929687 -20.6328125 29.65234375 C-19.76398438 30.09707031 -18.89515625 30.54179687 -18 31 C-18.495 28.525 -18.495 28.525 -19 26 C-16.69 26 -14.38 26 -12 26 C-10 32 -10 32 -8 38 C-7.01 38.495 -7.01 38.495 -6 39 C-5.81824219 38.09507812 -5.81824219 38.09507812 -5.6328125 37.171875 C-5.46523437 36.37265625 -5.29765625 35.5734375 -5.125 34.75 C-4.88136719 33.56664062 -4.88136719 33.56664062 -4.6328125 32.359375 C-4.00849925 30.03168856 -3.15161458 28.10968048 -2 26 C-1.34 26 -0.68 26 0 26 C0 17.42 0 8.84 0 0 Z " fill="#F1F2F2" transform="translate(90,105)"/>
<path d="M0 0 C3.63 0 7.26 0 11 0 C11 0.33 11 0.66 11 1 C12.17755859 1.14695312 12.17755859 1.14695312 13.37890625 1.296875 C26.10872675 3.10872675 26.10872675 3.10872675 31 8 C31.375 11.1875 31.375 11.1875 31 15 C30.154375 16.010625 29.30875 17.02125 28.4375 18.0625 C25.67316498 20.77284585 25.67316498 20.77284585 25.9375 24.1875 C27.12197155 27.32286587 28.1405528 28.33967582 31 30 C30.505 31.485 30.505 31.485 30 33 C26.11617586 32.72903553 24.26826936 32.21461548 21.1875 29.75 C18.98782572 26.98469519 18.2972185 25.46754912 18 22 C16.35 22 14.7 22 13 22 C13.144375 23.15757812 13.28875 24.31515625 13.4375 25.5078125 C13.62518776 27.04685211 13.81267727 28.58591591 14 30.125 C14.09539063 30.88554687 14.19078125 31.64609375 14.2890625 32.4296875 C14.37929688 33.17734375 14.46953125 33.925 14.5625 34.6953125 C14.68818359 35.7164917 14.68818359 35.7164917 14.81640625 36.75830078 C15.04070773 39.49704567 15 42.25208538 15 45 C19.95 45 24.9 45 30 45 C30 49.95 30 54.9 30 60 C15.15 60 0.3 60 -15 60 C-15 45.15 -15 30.3 -15 15 C-10.05 15 -5.1 15 0 15 C0 10.05 0 5.1 0 0 Z " fill="#EDEEEE" transform="translate(15,120)"/>
<path d="M0 0 C1.52173828 0.11988281 1.52173828 0.11988281 3.07421875 0.2421875 C10.96812243 1.39443464 14.36876199 4.93457682 18.96728516 11.00073242 C21.52286588 14.66124168 22.4004832 17.63547194 23 22 C22.12786865 22.34780518 21.2557373 22.69561035 20.35717773 23.05395508 C17.09354746 24.35598024 13.83023886 25.65880541 10.56713867 26.9621582 C9.16003846 27.52399817 7.75281411 28.08552739 6.34545898 28.64672852 C4.31200248 29.4576603 2.27900847 30.26974237 0.24609375 31.08203125 C-1.58417358 31.81256714 -1.58417358 31.81256714 -3.45141602 32.55786133 C-6.98838309 33.99527891 -10.49586457 35.48475131 -14 37 C-13.89830839 39.94727535 -13.89830839 39.94727535 -13 43 C-7.66781471 45.87632217 -1.8900735 45.54125 4 45 C7.84915157 43.51374788 7.84915157 43.51374788 11 41 C14.95355026 40.55073292 16.55622323 40.69128572 19.875 43 C20.57625 43.66 21.2775 44.32 22 45 C20.69114898 50.56261684 16.61114029 53.1146132 12 56 C8.14089539 57.2863682 4.34078082 57.5226722 0.3125 57.8125 C-0.46544922 57.88919922 -1.24339844 57.96589844 -2.04492188 58.04492188 C-9.56978003 58.56582532 -14.13978062 55.92514766 -20.25 51.8125 C-27.34067714 44.5606711 -29.07018048 34.36043132 -29.5 24.5625 C-29.36392982 17.3436188 -28.12922881 13.0994654 -23 8 C-15.68717798 1.00512676 -10.04012855 -1.41773317 0 0 Z " fill="#E63429" transform="translate(336,43)"/>
<path d="M0 0 C0 0.33 0 0.66 0 1 C-3.3 1 -6.6 1 -10 1 C-10 2.98 -10 4.96 -10 7 C-5.05 7 -0.1 7 5 7 C5 11.95 5 16.9 5 22 C0.05 22 -4.9 22 -10 22 C-10 26.95 -10 31.9 -10 37 C-14.95 37 -19.9 37 -25 37 C-25 41.95 -25 46.9 -25 52 C-20.05 52 -15.1 52 -10 52 C-9.90234375 61.27734375 -9.90234375 61.27734375 -10 64 C-10.33 64.33 -10.66 64.66 -11 65 C-17.35116347 64.77715216 -22.12510344 63.20626985 -27 59 C-27.495 57.515 -27.495 57.515 -28 56 C-28.598125 55.731875 -29.19625 55.46375 -29.8125 55.1875 C-33.92003814 52.95769358 -35.60623664 49.13488227 -37.09375 44.84765625 C-39.14403255 36.14279285 -39.99635439 24.0612648 -35.5234375 16.01953125 C-24.99557298 2.06336213 -16.61016204 -0.72568669 0 0 Z " fill="#EDEEEE" transform="translate(55,23)"/>
<path d="M0 0 C2.32642529 1.52238006 4.1064068 3.16096469 6.015625 5.17578125 C10.74104387 9.51981789 15.49276597 10.53181888 21.75 10.4375 C22.80562134 10.42614014 22.80562134 10.42614014 23.88256836 10.41455078 C30.35528998 10.21118813 36.88497319 9.19118883 41.59765625 4.36328125 C42.10167969 3.81027344 42.60570312 3.25726563 43.125 2.6875 C45.83913468 0.05261013 47.08324429 -0.00334282 50.98828125 -0.16015625 C55.01834852 0.03130542 59.00128493 0.47195839 63 1 C63 5.95 63 10.9 63 16 C58.05 16 53.1 16 48 16 C48 20.95 48 25.9 48 31 C43.05 31 38.1 31 33 31 C33 26.05 33 21.1 33 16 C28.05 16 23.1 16 18 16 C18 20.95 18 25.9 18 31 C13.05 31 8.1 31 3 31 C3 26.05 3 21.1 3 16 C-1.95 16 -6.9 16 -12 16 C-12 11.05 -12 6.1 -12 1 C-8.20654298 -0.89672851 -4.11063839 -0.75341613 0 0 Z " fill="#F9F7F7" transform="translate(102,89)"/>
<path d="M0 0 C4.95 0 9.9 0 15 0 C15 2.97 15 5.94 15 9 C13.68 9.33 12.36 9.66 11 10 C13.64 10.99 16.28 11.98 19 13 C18.67 13.99 18.34 14.98 18 16 C14.7 16 11.4 16 8 16 C8 16.66 8 17.32 8 18 C9.2375 18.103125 10.475 18.20625 11.75 18.3125 C17.77356322 19.12418582 17.77356322 19.12418582 20 22 C20.32662907 24.75457182 20.18310613 27.20763154 20 30 C19.03320312 30.29003906 19.03320312 30.29003906 18.046875 30.5859375 C15.65648799 31.88708247 15.65648799 31.88708247 15.390625 35.0390625 C15.34421875 36.22242188 15.2978125 37.40578125 15.25 38.625 C15.1675 40.72875 15.085 42.8325 15 45 C10.05 45 5.1 45 0 45 C0 40.05 0 35.1 0 30 C-1.65 30 -3.3 30 -5 30 C-5.33 30.99 -5.66 31.98 -6 33 C-7.65 33 -9.3 33 -11 33 C-11.64995297 31.58521865 -12.29478722 30.16808513 -12.9375 28.75 C-13.29714844 27.96109375 -13.65679687 27.1721875 -14.02734375 26.359375 C-14.90033279 24.24176302 -15.51338508 22.23330638 -16 20 C-16.66 20.33 -17.32 20.66 -18 21 C-18.91485573 23.80478195 -18.91485573 23.80478195 -19.625 27.0625 C-19.88539063 28.16722656 -20.14578125 29.27195313 -20.4140625 30.41015625 C-20.60742188 31.26480469 -20.80078125 32.11945313 -21 33 C-23.31 33 -25.62 33 -28 33 C-28.18175781 32.38253906 -28.36351562 31.76507813 -28.55078125 31.12890625 C-30.06979088 26.01101226 -31.66800446 20.94322843 -33.44921875 15.91015625 C-34 14 -34 14 -34 11 C-32.00045254 10.95745644 -29.99958364 10.95919217 -28 11 C-26.34623289 12.65376711 -26.36528792 14.80948364 -25.9375 17.0625 C-25.76089844 17.98160156 -25.58429688 18.90070313 -25.40234375 19.84765625 C-25.26957031 20.55792969 -25.13679687 21.26820313 -25 22 C-24.34 21.67 -23.68 21.34 -23 21 C-22.349461 18.91388442 -22.349461 18.91388442 -21.9375 16.5 C-21.09393346 12.09393346 -21.09393346 12.09393346 -20 11 C-18.00041636 10.95919217 -15.99954746 10.95745644 -14 11 C-12.41744803 15.32564205 -11.54855348 19.428721 -11 24 C-10.34 24 -9.68 24 -9 24 C-8.01 19.71 -7.02 15.42 -6 11 C-4.02 11 -2.04 11 0 11 C0 7.37 0 3.74 0 0 Z " fill="#ECEDED" transform="translate(165,120)"/>
<path d="M0 0 C4.29 0 8.58 0 13 0 C13 28.38 13 56.76 13 86 C8.71 86 4.42 86 0 86 C0 57.62 0 29.24 0 0 Z " fill="#239B40" transform="translate(288,13)"/>
<path d="M0 0 C6.89561935 4.38610249 6.89561935 4.38610249 8.42578125 8.79296875 C9.2424116 15.6086913 9.90221999 22.79308126 5.73828125 28.60546875 C2.63891977 32.23340351 -0.74412413 33.50772642 -5.40625 34.234375 C-11.01071767 34.46207945 -14.76832355 34.3374304 -19.19921875 30.66796875 C-24.3710297 25.28155983 -25.15868282 19.84629939 -25.01953125 12.55078125 C-24.07554162 6.70467001 -20.46340306 3.16692098 -15.82421875 -0.20703125 C-10.31393531 -1.90250308 -5.34601664 -2.50670583 0 0 Z " fill="#EEEEED" transform="translate(196.57421875,55.20703125)"/>
<path d="M0 0 C4.95 0 9.9 0 15 0 C15.09765625 3.54817708 15.1953125 7.09635417 15.29296875 10.64453125 C15.65017125 14.1376595 15.65017125 14.1376595 18.36328125 15.82421875 C19.23339844 16.21222656 20.10351562 16.60023438 21 17 C21.99 17.66 22.98 18.32 24 19 C23.525625 19.474375 23.05125 19.94875 22.5625 20.4375 C20.31923904 24.11644797 20.26260422 27.7621112 20 32 C18.35 31.67 16.7 31.34 15 31 C15 35.62 15 40.24 15 45 C10.05 45 5.1 45 0 45 C0 40.05 0 35.1 0 30 C-3.3 29.67 -6.6 29.34 -10 29 C-10.103125 27.88625 -10.20625 26.7725 -10.3125 25.625 C-10.539375 24.42875 -10.76625 23.2325 -11 22 C-13.90092502 20.06604999 -14.89674737 19.69868059 -18.1875 19.375 C-19.445625 19.25125 -20.70375 19.1275 -22 19 C-22 17.68 -22 16.36 -22 15 C-14.74 15 -7.48 15 0 15 C0 10.05 0 5.1 0 0 Z " fill="#ECEDEB" transform="translate(195,120)"/>
<path d="M0 0 C4.30239608 2.59113709 7.23294002 5.84941003 10 10 C10.30078125 13.36328125 10.30078125 13.36328125 10.3125 17.3125 C10.32925781 18.60800781 10.34601563 19.90351562 10.36328125 21.23828125 C9.86361737 26.41222014 8.29644117 29.66851988 4.6875 33.375 C-0.47672342 36.47093243 -7.2599793 35.67409496 -13 35 C-16.52620509 33.7945149 -18.37842264 31.83481923 -20.60546875 28.84375 C-23.45073905 23.04163018 -22.8884751 16.26312377 -22 10 C-17.43382746 1.20450371 -9.51418885 -1.75848456 0 0 Z " fill="#EDEBEB" transform="translate(131,54)"/>
<path d="M0 0 C5.1618962 2.52110003 7.909974 5.68536245 10 11 C11.28962366 18.5004512 9.98127218 24.36905492 6.484375 31.0390625 C4.74253676 33.3401225 3.73381757 34.08715088 1 35 C-12.08617519 36.49781523 -12.08617519 36.49781523 -16.6875 32.875 C-21.70508466 26.63692177 -22.55530823 22.00744515 -22.34765625 14.0625 C-21.88918019 10.02378953 -20.79493112 7.94203276 -18 5 C-17.175 4.05125 -16.35 3.1025 -15.5 2.125 C-11.12930051 -1.34026046 -5.25543166 -0.84879112 0 0 Z " fill="#EAECEE" transform="translate(258,54)"/>
<path d="M0 0 C4.95 0 9.9 0 15 0 C15 3.3 15 6.6 15 10 C16.1446875 10.4021875 16.1446875 10.4021875 17.3125 10.8125 C21.52744887 12.67491927 21.52744887 12.67491927 23 15 C23.24759992 17.71821651 23.13477933 20.25948688 23 23 C18.38 23.66 13.76 24.32 9 25 C9.66 25.99 10.32 26.98 11 28 C14.71640139 28.27028374 17.457201 28.180933 21 27 C21.33 28.32 21.66 29.64 22 31 C17.25 34 17.25 34 15 34 C15 37.63 15 41.26 15 45 C10.05 45 5.1 45 0 45 C0 40.05 0 35.1 0 30 C-0.66 30 -1.32 30 -2 30 C-2.02685412 27.68756208 -2.04632841 25.3750373 -2.0625 23.0625 C-2.07410156 21.77472656 -2.08570312 20.48695313 -2.09765625 19.16015625 C-2 16 -2 16 -1 15 C-0.76328017 12.47206606 -0.5785675 9.97065034 -0.4375 7.4375 C-0.293125 4.983125 -0.14875 2.52875 0 0 Z " fill="#ECEDED" transform="translate(105,120)"/>
<path d="M0 0 C2.42893851 1.19928839 4.67650471 2.59713492 7 4 C7.68868164 4.13204834 8.37736328 4.26409668 9.08691406 4.40014648 C11 5 11 5 12.09667969 6.58227539 C12.36899414 7.24735107 12.64130859 7.91242676 12.921875 8.59765625 C13.22480469 9.31630859 13.52773437 10.03496094 13.83984375 10.77539062 C14.14019531 11.53013672 14.44054687 12.28488281 14.75 13.0625 C15.06582031 13.82111328 15.38164063 14.57972656 15.70703125 15.36132812 C16.48491249 17.23531476 17.24424502 19.11698127 18 21 C19.98 21 21.96 21 24 21 C27.92004114 11.14006661 27.92004114 11.14006661 31 1 C31.495 2.485 31.495 2.485 32 4 C32.66 4 33.32 4 34 4 C34 8.95 34 13.9 34 19 C32.02 19 30.04 19 28 19 C28 23.95 28 28.9 28 34 C23.05 34 18.1 34 13 34 C13 29.05 13 24.1 13 19 C10.4940625 19.4640625 10.4940625 19.4640625 7.9375 19.9375 C6.93074219 20.11539063 5.92398438 20.29328125 4.88671875 20.4765625 C2.666312 20.87918023 0.45544118 21.33465441 -1.75 21.8125 C-5.94306885 22.05440782 -8.37188446 21.06304609 -12 19 C-14.61170391 14.89962485 -14.8244102 10.71791186 -14 6 C-10.41493705 -0.42379309 -6.96743405 -1.48486299 0 0 Z " fill="#EAEBEB" transform="translate(62,131)"/>
<path d="M0 0 C14.85 0 29.7 0 45 0 C46.21693876 2.43387753 46.31959896 4.41838846 46.5625 7.125 C46.64628906 8.03507813 46.73007812 8.94515625 46.81640625 9.8828125 C46.87699219 10.58148438 46.93757813 11.28015625 47 12 C46.39639648 11.94875977 45.79279297 11.89751953 45.17089844 11.84472656 C32.55107639 10.83918222 22.5403584 10.2298208 11 16 C9.12137125 15.91255632 7.24544819 15.75824458 5.375 15.5625 C3.60125 15.376875 1.8275 15.19125 0 15 C0 10.05 0 5.1 0 0 Z " fill="#EEEFF1" transform="translate(15,0)"/>
<path d="M0 0 C17.31898003 -0.57252827 17.31898003 -0.57252827 23 4 C24 5 24 5 24.375 8.1875 C24 12 24 12 21.4375 15.0625 C18.67316498 17.77284585 18.67316498 17.77284585 18.9375 21.1875 C20.12197155 24.32286587 21.1405528 25.33967582 24 27 C23.67 27.99 23.34 28.98 23 30 C19.11617586 29.72903553 17.26826936 29.21461548 14.1875 26.75 C11.98782572 23.98469519 11.2972185 22.46754912 11 19 C9.35 19 7.7 19 6 19 C6 22.63 6 26.26 6 30 C4.02 30 2.04 30 0 30 C0 20.1 0 10.2 0 0 Z " fill="#6F7073" transform="translate(22,123)"/>
<path d="M0 0 C4.95 0 9.9 0 15 0 C15.09765625 9.27734375 15.09765625 9.27734375 15 12 C14.67 12.33 14.34 12.66 14 13 C10.37 13 6.74 13 3 13 C3 41.38 3 69.76 3 99 C6.96 99 10.92 99 15 99 C15 100.98 15 102.96 15 105 C10.05 105 5.1 105 0 105 C0 70.35 0 35.7 0 0 Z " fill="#ECEDED" transform="translate(285,0)"/>
<path d="M0 0 C4.95 0 9.9 0 15 0 C15 4.29 15 8.58 15 13 C4.375 16.875 4.375 16.875 1 18 C0.731875 18.680625 0.46375 19.36125 0.1875 20.0625 C-1.5003845 24.23779324 -4.22519651 27.48350375 -7 31 C-9.31 30.34 -11.62 29.68 -14 29 C-14 26.69 -14 24.38 -14 22 C-27.86 22 -41.72 22 -56 22 C-56 21.67 -56 21.34 -56 21 C-42.47 20.67 -28.94 20.34 -15 20 C-15 18.35 -15 16.7 -15 15 C-10.05 15 -5.1 15 0 15 C0 10.05 0 5.1 0 0 Z " fill="#ECECEC" transform="translate(105,30)"/>
<path d="M0 0 C0.66 0.33 1.32 0.66 2 1 C2 5.95 2 10.9 2 16 C-2.95 16 -7.9 16 -13 16 C-12.67 19.63 -12.34 23.26 -12 27 C-17.54983016 30.69988677 -23.4696273 30.896498 -30 30 C-33.47836291 28.30782345 -34.82717395 27.25923907 -37 24 C-36.97827148 21.98071289 -36.97827148 21.98071289 -36 20 C-33.56665039 18.58374023 -33.56665039 18.58374023 -30.34765625 17.30859375 C-28.59291992 16.60379883 -28.59291992 16.60379883 -26.80273438 15.88476562 C-26.18744873 15.64669189 -25.57216309 15.40861816 -24.93823242 15.16333008 C-23.0954491 14.45024993 -21.26146264 13.71456883 -19.42773438 12.97851562 C-12.70387428 10.31171459 -5.97625141 7.9163315 1 6 C0.505 3.03 0.505 3.03 0 0 Z " fill="#EDE9E9" transform="translate(358,59)"/>
<path d="M0 0 C1.99954746 -0.04254356 4.00041636 -0.04080783 6 0 C7.65376711 1.65376711 7.63471208 3.80948364 8.0625 6.0625 C8.23910156 6.98160156 8.41570312 7.90070313 8.59765625 8.84765625 C8.73042969 9.55792969 8.86320313 10.26820313 9 11 C9.66 10.67 10.32 10.34 11 10 C11.650539 7.91388442 11.650539 7.91388442 12.0625 5.5 C12.90606654 1.09393346 12.90606654 1.09393346 14 0 C15.99958364 -0.04080783 18.00045254 -0.04254356 20 0 C21.58255197 4.32564205 22.45144652 8.428721 23 13 C23.66 13 24.32 13 25 13 C25.99 8.71 26.98 4.42 28 0 C29.98 0 31.96 0 34 0 C33.73445313 0.83402344 33.46890625 1.66804687 33.1953125 2.52734375 C31.16911282 8.98308215 29.34863251 15.36922349 28 22 C26.35 22 24.7 22 23 22 C22.35004703 20.58521865 21.70521278 19.16808513 21.0625 17.75 C20.70285156 16.96109375 20.34320313 16.1721875 19.97265625 15.359375 C19.09966721 13.24176302 18.48661492 11.23330638 18 9 C17.01 9.495 17.01 9.495 16 10 C15.08514427 12.80478195 15.08514427 12.80478195 14.375 16.0625 C14.11460937 17.16722656 13.85421875 18.27195313 13.5859375 19.41015625 C13.39257812 20.26480469 13.19921875 21.11945313 13 22 C10.69 22 8.38 22 6 22 C5.81824219 21.38253906 5.63648438 20.76507813 5.44921875 20.12890625 C3.93020912 15.01101226 2.33199554 9.94322843 0.55078125 4.91015625 C0 3 0 3 0 0 Z " fill="#737477" transform="translate(131,131)"/>
<path d="M0 0 C0 4.95 0 9.9 0 15 C4.95 15 9.9 15 15 15 C15.09765625 24.27734375 15.09765625 24.27734375 15 27 C14.67 27.33 14.34 27.66 14 28 C7.64883653 27.77715216 2.87489656 26.20626985 -2 22 C-2.33 21.01 -2.66 20.02 -3 19 C-3.598125 18.731875 -4.19625 18.46375 -4.8125 18.1875 C-8.12258739 16.39059542 -9.22611533 14.31125139 -11 11 C-11.87826839 7.69415831 -12.49215889 4.38115263 -13 1 C-11.58366664 0.83052421 -10.16691467 0.66454493 -8.75 0.5 C-7.56664062 0.36078125 -7.56664062 0.36078125 -6.359375 0.21875 C-4 0 -4 0 0 0 Z " fill="#E9EBEE" transform="translate(30,60)"/>
<path d="M0 0 C3.83499846 2.43933074 6.87456244 4.37919151 8.42578125 8.79296875 C8.62109375 11.58984375 8.62109375 11.58984375 8.55078125 14.54296875 C8.53273437 15.5278125 8.5146875 16.51265625 8.49609375 17.52734375 C8.47289062 18.275 8.4496875 19.02265625 8.42578125 19.79296875 C5.12578125 19.79296875 1.82578125 19.79296875 -1.57421875 19.79296875 C-1.57421875 14.84296875 -1.57421875 9.89296875 -1.57421875 4.79296875 C-6.52421875 4.79296875 -11.47421875 4.79296875 -16.57421875 4.79296875 C-16.57421875 9.74296875 -16.57421875 14.69296875 -16.57421875 19.79296875 C-20.53421875 20.28796875 -20.53421875 20.28796875 -24.57421875 20.79296875 C-25.15186235 14.97374432 -25.46670605 10.20279478 -21.94921875 5.29296875 C-16.18716338 -1.24629408 -8.16496152 -3.82848727 0 0 Z " fill="#EEEDE9" transform="translate(196.57421875,55.20703125)"/>
<path d="M0 0 C4.30239608 2.59113709 7.23294002 5.84941003 10 10 C9.9765625 12.69921875 9.9765625 12.69921875 9.625 15.6875 C9.45871094 17.17830078 9.45871094 17.17830078 9.2890625 18.69921875 C9.14597656 19.83810547 9.14597656 19.83810547 9 21 C7.35 21 5.7 21 4 21 C4 16.05 4 11.1 4 6 C-0.95 6 -5.9 6 -11 6 C-11 10.95 -11 15.9 -11 21 C-14.3 21 -17.6 21 -21 21 C-23.00796271 11.82074189 -23.00796271 11.82074189 -20.6484375 7.55859375 C-14.76001418 0.75558554 -9.04295502 -1.67138755 0 0 Z " fill="#EEEBEB" transform="translate(131,54)"/>
<path d="M0 0 C3.0505328 1.27771008 5.6494437 2.6494437 8 5 C8.5625 8.75 8.5625 8.75 8 12 C6.05909174 13.94090826 2.52706098 13.39919435 -0.0625 13.5625 C-1.99802734 13.68818359 -1.99802734 13.68818359 -3.97265625 13.81640625 C-4.97167969 13.87699219 -5.97070312 13.93757812 -7 14 C-6.01 15.485 -6.01 15.485 -5 17 C-2.56306689 17.36416047 -2.56306689 17.36416047 0.125 17.1875 C1.03507812 17.16042969 1.94515625 17.13335937 2.8828125 17.10546875 C3.58148438 17.07066406 4.28015625 17.03585938 5 17 C5 17.99 5 18.98 5 20 C0.44127595 22.42182215 -3.12632434 22.07282169 -8 21 C-10.66682588 20.08766483 -11.6346387 19.6124784 -13.07421875 17.19921875 C-14.63658719 13.48776967 -14.68940073 9.94528341 -14 6 C-10.43349014 -0.39054926 -6.94730427 -1.56874613 0 0 Z " fill="#747579" transform="translate(62,131)"/>
<path d="M0 0 C3.4375 2 3.4375 2 6 5 C6.50159903 7.85647449 6.2978711 10.07093421 6 13 C1.38 13.66 -3.24 14.32 -8 15 C-7.01 16.485 -7.01 16.485 -6 18 C-2.28359861 18.27028374 0.457201 18.180933 4 17 C4.33 18.32 4.66 19.64 5 21 C1.62839885 23.07237896 -0.66269846 23.15324478 -4.5625 22.75 C-5.51253906 22.66234375 -6.46257812 22.5746875 -7.44140625 22.484375 C-10 22 -10 22 -13 20 C-14.59813852 15.56706817 -14.8766318 10.60775063 -14 6 C-10.58321867 0.84948096 -6.12097736 -1.22419547 0 0 Z " fill="#747579" transform="translate(122,130)"/>
<path d="M0 0 C1.03769531 -0.02578125 2.07539063 -0.0515625 3.14453125 -0.078125 C7.33002671 0.37319929 9.84986013 1.87933198 12.76953125 4.87109375 C16.81303861 10.84008081 16.71612694 16.20164081 16.1875 23.25 C15.5275 22.59 14.8675 21.93 14.1875 21.25 C11.51800591 21.00684344 11.51800591 21.00684344 8.5625 21.125 C6.78875 21.16625 5.015 21.2075 3.1875 21.25 C3.1875 16.3 3.1875 11.35 3.1875 6.25 C-1.7625 6.25 -6.7125 6.25 -11.8125 6.25 C-7.23420516 0.52713145 -6.76626879 0.10011742 0 0 Z " fill="#E8EAEE" transform="translate(251.8125,53.75)"/>
<path d="M0 0 C4.29 0 8.58 0 13 0 C13 28.38 13 56.76 13 86 C8.71 86 4.42 86 0 86 C0 57.62 0 29.24 0 0 Z M1 2 C1 29.39 1 56.78 1 85 C4.3 85 7.6 85 11 85 C11 57.61 11 30.22 11 2 C7.7 2 4.4 2 1 2 Z " fill="#309F4C" transform="translate(288,13)"/>
<path d="M0 0 C3 1 3 1 4.3125 3.4375 C6.46245976 6.70225371 8.28533211 7.09197007 12 8 C11.525625 8.639375 11.05125 9.27875 10.5625 9.9375 C8.52968613 13.92181519 8.2789471 17.58494074 8 22 C7.33613281 21.91621094 6.67226562 21.83242187 5.98828125 21.74609375 C-0.54720848 20.94574958 -0.54720848 20.94574958 -7 22 C-7.03738281 21.40832031 -7.07476562 20.81664062 -7.11328125 20.20703125 C-7.51376901 15.39332549 -8.0385035 11.99158223 -11 8 C-8.50935112 7.31292445 -6.62113708 7 -4 7 C-3.525625 6.030625 -3.05125 5.06125 -2.5625 4.0625 C-1 1 -1 1 0 0 Z " fill="#FAB10D" transform="translate(207,130)"/>
<path d="M0 0 C1.9375 0.6875 1.9375 0.6875 4 2 C4.75 4.625 4.75 4.625 5 7 C7.64 7.33 10.28 7.66 13 8 C11.99088542 9.62760417 10.98177083 11.25520833 9.97265625 12.8828125 C8.64061837 15.53819129 8.64061837 15.53819129 8 21 C3.38 21.33 -1.24 21.66 -6 22 C-6.268125 20.618125 -6.53625 19.23625 -6.8125 17.8125 C-7.63768088 14.04872534 -8.74478287 11.17780596 -11 8 C-9.741875 7.608125 -8.48375 7.21625 -7.1875 6.8125 C-3.98017438 5.63175004 -3.12072078 5.16221855 -1 2.3125 C-0.505 1.1678125 -0.505 1.1678125 0 0 Z " fill="#FAB20E" transform="translate(293,130)"/>
<path d="M0 0 C2.2477975 2.05233685 3.0022242 3.00667261 4 6 C5.87387216 6.80212628 5.87387216 6.80212628 8.0625 7.1875 C8.79597656 7.34605469 9.52945313 7.50460938 10.28515625 7.66796875 C10.85105469 7.77753906 11.41695312 7.88710937 12 8 C11.525625 8.639375 11.05125 9.27875 10.5625 9.9375 C8.47519082 14.02862599 8.34097744 17.43090233 8 22 C3.05 22 -1.9 22 -7 22 C-6.505 17.545 -6.505 17.545 -6 13 C-7.32 12.34 -8.64 11.68 -10 11 C-10.33 10.01 -10.66 9.02 -11 8 C-9.39125 7.690625 -9.39125 7.690625 -7.75 7.375 C-3.29408826 5.7411657 -2.22222392 4.08889201 0 0 Z " fill="#FAB311" transform="translate(236,130)"/>
<path d="M0 0 C3 1 3 1 4.3125 3.4375 C6.46245976 6.70225371 8.28533211 7.09197007 12 8 C11.525625 9.010625 11.05125 10.02125 10.5625 11.0625 C9.0063672 14.65922205 8.3987054 18.09268709 8 22 C3.38 22 -1.24 22 -6 22 C-6.268125 20.618125 -6.53625 19.23625 -6.8125 17.8125 C-7.63768088 14.04872534 -8.74478287 11.17780596 -11 8 C-8.36 7.67 -5.72 7.34 -3 7 C-2.690625 6.030625 -2.38125 5.06125 -2.0625 4.0625 C-1 1 -1 1 0 0 Z " fill="#FAB20F" transform="translate(322,130)"/>
<path d="M0 0 C2.50877741 1.03811479 3.81515217 1.73113043 5.375 4 C7.55018577 6.67715172 9.72895533 7.12772142 13 8 C12.525625 8.66 12.05125 9.32 11.5625 10 C9.58682146 13.7933028 9.35972537 16.75524068 9 21 C5 21 5 21 2.0625 20.375 C-1.32890155 19.95972634 -2.98525073 20.49262536 -6 22 C-5.9175 20.783125 -5.835 19.56625 -5.75 18.3125 C-5.72528316 14.83360474 -5.95888443 14.06167336 -8 11 C-8.66 10.34 -9.32 9.68 -10 9 C-8 7 -8 7 -5 5.625 C-1.92400329 3.95883511 -1.11050926 3.22047686 0 0 Z " fill="#FAB313" transform="translate(264,130)"/>
<path d="M0 0 C2.31 0 4.62 0 7 0 C8.33333333 4 9.66666667 8 11 12 C11.66 12.33 12.32 12.66 13 13 C13.12117188 12.39671875 13.24234375 11.7934375 13.3671875 11.171875 C13.53476563 10.37265625 13.70234375 9.5734375 13.875 8.75 C14.03742188 7.96109375 14.19984375 7.1721875 14.3671875 6.359375 C14.99150075 4.03168856 15.84838542 2.10968048 17 0 C18.98 0 20.96 0 23 0 C22.46393482 7.86228928 19.35349826 15.46975261 15 22 C11.875 22.1875 11.875 22.1875 9 22 C7.87247351 19.77208002 6.74791861 17.54274113 5.625 15.3125 C5.14933594 14.37374023 5.14933594 14.37374023 4.6640625 13.41601562 C0 4.13647461 0 4.13647461 0 0 Z " fill="#737477" transform="translate(71,131)"/>
<path d="M0 0 C2.42726956 1.44934071 3.34963458 2.64233511 5 5 C1.93534907 8.32803766 -1.65477037 9.86136096 -5.75 11.625 C-6.78640625 12.09292969 -6.78640625 12.09292969 -7.84375 12.5703125 C-12.26633475 14.49895848 -16.19573244 15.53466518 -21 16 C-21.50657287 10.68098483 -20.32610043 8.13515188 -17 4 C-12.53725352 -1.29951144 -6.44320041 -1.07683322 0 0 Z " fill="#EEE8E8" transform="translate(340,54)"/>
<path d="M0 0 C4.95 0 9.9 0 15 0 C15 4.29 15 8.58 15 13 C17.97 13.33 20.94 13.66 24 14 C24 14.33 24 14.66 24 15 C20.04 15 16.08 15 12 15 C11.67 15.99 11.34 16.98 11 18 C7 16.66666667 3 15.33333333 -1 14 C-0.67 9.38 -0.34 4.76 0 0 Z " fill="#E7EAEF" transform="translate(255,30)"/>
<path d="M0 0 C2.9375 1.0625 2.9375 1.0625 5 2 C4.67 2.99 4.34 3.98 4 5 C0.7 5 -2.6 5 -6 5 C-6 5.66 -6 6.32 -6 7 C-4.14375 7.1546875 -4.14375 7.1546875 -2.25 7.3125 C3.77356322 8.12418582 3.77356322 8.12418582 6 11 C6.61451215 13.80334592 6.64168586 16.19991627 6 19 C3.63154785 21.61346444 1.74380693 21.93462216 -1.7109375 22.23828125 C-4.52552939 22.30846136 -7.20486209 22.3465791 -10 22 C-10.66 21.34 -11.32 20.68 -12 20 C-11.625 17.375 -11.625 17.375 -11 15 C-10.505 15.309375 -10.01 15.61875 -9.5 15.9375 C-6.02013219 17.41644382 -2.75971491 17.62402851 1 18 C0.35765742 16.00291103 0.35765742 16.00291103 -1 14 C-3.39459647 12.87108243 -3.39459647 12.87108243 -6.125 12.25 C-7.03507813 12.00765625 -7.94515625 11.7653125 -8.8828125 11.515625 C-9.58148438 11.34546875 -10.28015625 11.1753125 -11 11 C-12.11428571 5.85714286 -12.11428571 5.85714286 -12 3 C-8.3973148 -1.61594042 -5.41449892 -1.35362473 0 0 Z " fill="#747578" transform="translate(179,131)"/>
<path d="M0 0 C4.95 0 9.9 0 15 0 C15 3.63 15 7.26 15 11 C14.01 11.495 14.01 11.495 13 12 C12.21655744 13.99291777 11.51983635 16.02051823 10.875 18.0625 C10.52179688 19.16722656 10.16859375 20.27195313 9.8046875 21.41015625 C9.53914063 22.26480469 9.27359375 23.11945313 9 24 C8.01 23.67 7.02 23.34 6 23 C5.03979704 20.19051726 4.4716702 17.36914329 3.84375 14.46875 C3.5653125 13.6540625 3.286875 12.839375 3 12 C2.01 11.67 1.02 11.34 0 11 C0 7.37 0 3.74 0 0 Z " fill="#EDEDED" transform="translate(75,120)"/>
<path d="M0 0 C4.95 0 9.9 0 15 0 C15 4.95 15 9.9 15 15 C11.1273408 15.9681648 7.96388638 16.07622858 4 16 C4 15.01 4 14.02 4 13 C-1.94 11.515 -1.94 11.515 -8 10 C-8 9.67 -8 9.34 -8 9 C-5.36 9 -2.72 9 0 9 C0 6.03 0 3.06 0 0 Z " fill="#FCFCFC" transform="translate(180,120)"/>
<path d="M0 0 C0.66 0.33 1.32 0.66 2 1 C2 5.95 2 10.9 2 16 C-2.95 16 -7.9 16 -13 16 C-13.48828125 6.13671875 -13.48828125 6.13671875 -13 3 C-8.72251238 -0.60404234 -5.32881942 -0.34943078 0 0 Z " fill="#FDFDFD" transform="translate(193,149)"/>
<path d="M0 0 C0.33 0 0.66 0 1 0 C1 28.05 1 56.1 1 85 C4.96 85 8.92 85 13 85 C13 86.98 13 88.96 13 91 C8.05 91 3.1 91 -2 91 C-2.04739421 79.96011087 -1.86737807 68.94532302 -1.5625 57.91015625 C-1.51748529 56.2276607 -1.47264815 54.54516039 -1.42797852 52.86265564 C-1.31137117 48.48816123 -1.19239279 44.1137346 -1.07287598 39.73931885 C-0.9507635 35.25398627 -0.83095499 30.76859217 -0.7109375 26.28320312 C-0.47618 17.52207452 -0.23891106 8.76101632 0 0 Z " fill="#E3E4E5" transform="translate(287,14)"/>
<path d="M0 0 C4.95 0 9.9 0 15 0 C15 4.95 15 9.9 15 15 C10.05 15 5.1 15 0 15 C0 10.05 0 5.1 0 0 Z " fill="#FFFFFF" transform="translate(345,165)"/>
<path d="M0 0 C4.95 0 9.9 0 15 0 C15 4.95 15 9.9 15 15 C10.05 15 5.1 15 0 15 C0 10.05 0 5.1 0 0 Z " fill="#EDEEEE" transform="translate(330,165)"/>
<path d="M0 0 C4.95 0 9.9 0 15 0 C15 4.95 15 9.9 15 15 C10.05 15 5.1 15 0 15 C0 10.05 0 5.1 0 0 Z " fill="#FFFFFF" transform="translate(315,165)"/>
<path d="M0 0 C4.95 0 9.9 0 15 0 C15 4.95 15 9.9 15 15 C10.05 15 5.1 15 0 15 C0 10.05 0 5.1 0 0 Z " fill="#FFFFFF" transform="translate(285,165)"/>
<path d="M0 0 C4.95 0 9.9 0 15 0 C15 4.95 15 9.9 15 15 C10.05 15 5.1 15 0 15 C0 10.05 0 5.1 0 0 Z " fill="#FFFFFF" transform="translate(255,165)"/>
<path d="M0 0 C4.95 0 9.9 0 15 0 C15 4.95 15 9.9 15 15 C10.05 15 5.1 15 0 15 C0 10.05 0 5.1 0 0 Z " fill="#EDEEEE" transform="translate(240,165)"/>
<path d="M0 0 C4.95 0 9.9 0 15 0 C15 4.95 15 9.9 15 15 C10.05 15 5.1 15 0 15 C0 10.05 0 5.1 0 0 Z " fill="#FFFFFF" transform="translate(225,165)"/>
<path d="M0 0 C4.95 0 9.9 0 15 0 C15 4.95 15 9.9 15 15 C10.05 15 5.1 15 0 15 C0 10.05 0 5.1 0 0 Z " fill="#EDEEEE" transform="translate(210,165)"/>
<path d="M0 0 C4.95 0 9.9 0 15 0 C15 4.95 15 9.9 15 15 C10.05 15 5.1 15 0 15 C0 10.05 0 5.1 0 0 Z " fill="#FFFFFF" transform="translate(195,165)"/>
<path d="M0 0 C4.95 0 9.9 0 15 0 C15 4.95 15 9.9 15 15 C10.05 15 5.1 15 0 15 C0 10.05 0 5.1 0 0 Z " fill="#EDEEEE" transform="translate(180,165)"/>
<path d="M0 0 C4.95 0 9.9 0 15 0 C15 4.95 15 9.9 15 15 C10.05 15 5.1 15 0 15 C0 10.05 0 5.1 0 0 Z " fill="#FFFFFF" transform="translate(165,165)"/>
<path d="M0 0 C4.95 0 9.9 0 15 0 C15 4.95 15 9.9 15 15 C10.05 15 5.1 15 0 15 C0 10.05 0 5.1 0 0 Z " fill="#EDEEEE" transform="translate(150,165)"/>
<path d="M0 0 C4.95 0 9.9 0 15 0 C15 4.95 15 9.9 15 15 C10.05 15 5.1 15 0 15 C0 10.05 0 5.1 0 0 Z " fill="#FFFFFF" transform="translate(135,165)"/>
<path d="M0 0 C4.95 0 9.9 0 15 0 C15 4.95 15 9.9 15 15 C10.05 15 5.1 15 0 15 C0 10.05 0 5.1 0 0 Z " fill="#FFFFFF" transform="translate(105,165)"/>
<path d="M0 0 C4.95 0 9.9 0 15 0 C15 4.95 15 9.9 15 15 C10.05 15 5.1 15 0 15 C0 10.05 0 5.1 0 0 Z " fill="#FFFFFF" transform="translate(75,165)"/>
<path d="M0 0 C4.95 0 9.9 0 15 0 C15 4.95 15 9.9 15 15 C10.05 15 5.1 15 0 15 C0 10.05 0 5.1 0 0 Z " fill="#EDEEEE" transform="translate(60,165)"/>
<path d="M0 0 C4.95 0 9.9 0 15 0 C15 4.95 15 9.9 15 15 C10.05 15 5.1 15 0 15 C0 10.05 0 5.1 0 0 Z " fill="#FFFFFF" transform="translate(45,165)"/>
<path d="M0 0 C4.95 0 9.9 0 15 0 C15 4.95 15 9.9 15 15 C10.05 15 5.1 15 0 15 C0 10.05 0 5.1 0 0 Z " fill="#EDEEEE" transform="translate(30,165)"/>
<path d="M0 0 C4.95 0 9.9 0 15 0 C15 4.95 15 9.9 15 15 C10.05 15 5.1 15 0 15 C0 10.05 0 5.1 0 0 Z " fill="#FFFFFF" transform="translate(15,165)"/>
<path d="M0 0 C4.95 0 9.9 0 15 0 C15 4.95 15 9.9 15 15 C10.05 15 5.1 15 0 15 C0 10.05 0 5.1 0 0 Z " fill="#FFFFFF" transform="translate(0,150)"/>
<path d="M0 0 C4.95 0 9.9 0 15 0 C15 4.95 15 9.9 15 15 C10.05 15 5.1 15 0 15 C0 10.05 0 5.1 0 0 Z " fill="#FFFFFF" transform="translate(345,135)"/>
<path d="M0 0 C4.95 0 9.9 0 15 0 C15 4.95 15 9.9 15 15 C10.05 15 5.1 15 0 15 C0 10.05 0 5.1 0 0 Z " fill="#EEEFEF" transform="translate(345,120)"/>
<path d="M0 0 C4.95 0 9.9 0 15 0 C15 4.95 15 9.9 15 15 C10.05 15 5.1 15 0 15 C0 10.05 0 5.1 0 0 Z " fill="#FFFFFF" transform="translate(330,120)"/>
<path d="M0 0 C4.95 0 9.9 0 15 0 C15 4.95 15 9.9 15 15 C10.05 15 5.1 15 0 15 C0 10.05 0 5.1 0 0 Z " fill="#FFFFFF" transform="translate(300,120)"/>
<path d="M0 0 C4.95 0 9.9 0 15 0 C15 4.95 15 9.9 15 15 C10.05 15 5.1 15 0 15 C0 10.05 0 5.1 0 0 Z " fill="#FFFFFF" transform="translate(0,120)"/>
<path d="M0 0 C4.95 0 9.9 0 15 0 C15 4.95 15 9.9 15 15 C10.05 15 5.1 15 0 15 C0 10.05 0 5.1 0 0 Z " fill="#FFFFFF" transform="translate(345,105)"/>
<path d="M0 0 C4.95 0 9.9 0 15 0 C15 4.95 15 9.9 15 15 C10.05 15 5.1 15 0 15 C0 10.05 0 5.1 0 0 Z " fill="#FFFFFF" transform="translate(315,105)"/>
<path d="M0 0 C4.95 0 9.9 0 15 0 C15 4.95 15 9.9 15 15 C10.05 15 5.1 15 0 15 C0 10.05 0 5.1 0 0 Z " fill="#EDEEEE" transform="translate(300,105)"/>
<path d="M0 0 C4.95 0 9.9 0 15 0 C15 4.95 15 9.9 15 15 C10.05 15 5.1 15 0 15 C0 10.05 0 5.1 0 0 Z " fill="#FFFFFF" transform="translate(285,105)"/>
<path d="M0 0 C4.95 0 9.9 0 15 0 C15 4.95 15 9.9 15 15 C10.05 15 5.1 15 0 15 C0 10.05 0 5.1 0 0 Z " fill="#FFFFFF" transform="translate(195,105)"/>
<path d="M0 0 C4.95 0 9.9 0 15 0 C15 4.95 15 9.9 15 15 C10.05 15 5.1 15 0 15 C0 10.05 0 5.1 0 0 Z " fill="#FFFFFF" transform="translate(165,105)"/>
<path d="M0 0 C4.95 0 9.9 0 15 0 C15 4.95 15 9.9 15 15 C10.05 15 5.1 15 0 15 C0 10.05 0 5.1 0 0 Z " fill="#FFFFFF" transform="translate(135,105)"/>
<path d="M0 0 C4.95 0 9.9 0 15 0 C15 4.95 15 9.9 15 15 C10.05 15 5.1 15 0 15 C0 10.05 0 5.1 0 0 Z " fill="#FFFFFF" transform="translate(105,105)"/>
<path d="M0 0 C4.95 0 9.9 0 15 0 C15 4.95 15 9.9 15 15 C10.05 15 5.1 15 0 15 C0 10.05 0 5.1 0 0 Z " fill="#FFFFFF" transform="translate(75,105)"/>
<path d="M0 0 C4.95 0 9.9 0 15 0 C15 4.95 15 9.9 15 15 C10.05 15 5.1 15 0 15 C0 10.05 0 5.1 0 0 Z " fill="#FFFFFF" transform="translate(15,105)"/>
<path d="M0 0 C4.95 0 9.9 0 15 0 C15 4.95 15 9.9 15 15 C10.05 15 5.1 15 0 15 C0 10.05 0 5.1 0 0 Z " fill="#FFFFFF" transform="translate(150,90)"/>
<path d="M0 0 C4.95 0 9.9 0 15 0 C15 4.95 15 9.9 15 15 C10.05 15 5.1 15 0 15 C0 10.05 0 5.1 0 0 Z " fill="#FFFFFF" transform="translate(0,90)"/>
<path d="M0 0 C4.95 0 9.9 0 15 0 C15 4.95 15 9.9 15 15 C10.05 15 5.1 15 0 15 C0 10.05 0 5.1 0 0 Z " fill="#FFFFFF" transform="translate(240,60)"/>
<path d="M0 0 C4.95 0 9.9 0 15 0 C15 4.95 15 9.9 15 15 C10.05 15 5.1 15 0 15 C0 10.05 0 5.1 0 0 Z " fill="#FFFFFF" transform="translate(180,60)"/>
<path d="M0 0 C4.95 0 9.9 0 15 0 C15 4.95 15 9.9 15 15 C10.05 15 5.1 15 0 15 C0 10.05 0 5.1 0 0 Z " fill="#FFFFFF" transform="translate(120,60)"/>
<path d="M0 0 C4.95 0 9.9 0 15 0 C15 4.95 15 9.9 15 15 C10.05 15 5.1 15 0 15 C0 10.05 0 5.1 0 0 Z " fill="#FFFFFF" transform="translate(30,60)"/>
<path d="M0 0 C4.95 0 9.9 0 15 0 C16 5 16 5 14.34765625 7.89453125 C13.59355469 8.85746094 12.83945313 9.82039063 12.0625 10.8125 C11.31097656 11.78832031 10.55945313 12.76414062 9.78515625 13.76953125 C9.19605469 14.50558594 8.60695312 15.24164063 8 16 C5.69 15.34 3.38 14.68 1 14 C1 11.69 1 9.38 1 7 C-12.86 7 -26.72 7 -41 7 C-41 6.67 -41 6.34 -41 6 C-27.47 5.67 -13.94 5.34 0 5 C0 3.35 0 1.7 0 0 Z " fill="#DFE2EA" transform="translate(90,45)"/>
<path d="M0 0 C4.62 0 9.24 0 14 0 C14 4.95 14 9.9 14 15 C9.71 15 5.42 15 1 15 C1 19.95 1 24.9 1 30 C0.67 30 0.34 30 0 30 C0 20.1 0 10.2 0 0 Z " fill="#FFFFFF" transform="translate(301,30)"/>
<path d="M0 0 C4.95 0 9.9 0 15 0 C15 4.95 15 9.9 15 15 C10.05 15 5.1 15 0 15 C0 10.05 0 5.1 0 0 Z " fill="#FFFFFF" transform="translate(210,30)"/>
<path d="M0 0 C4.95 0 9.9 0 15 0 C15 4.95 15 9.9 15 15 C10.05 15 5.1 15 0 15 C0 10.05 0 5.1 0 0 Z " fill="#FFFFFF" transform="translate(150,30)"/>
<path d="M0 0 C4.95 0 9.9 0 15 0 C15 4.95 15 9.9 15 15 C10.05 15 5.1 15 0 15 C0 10.05 0 5.1 0 0 Z " fill="#FFFFFF" transform="translate(90,30)"/>
<path d="M0 0 C4.95 0 9.9 0 15 0 C15 4.95 15 9.9 15 15 C10.05 15 5.1 15 0 15 C0 10.05 0 5.1 0 0 Z " fill="#EDEEEE" transform="translate(75,30)"/>
<path d="M0 0 C4.95 0 9.9 0 15 0 C15 4.95 15 9.9 15 15 C10.05 15 5.1 15 0 15 C0 10.05 0 5.1 0 0 Z " fill="#EDEEEE" transform="translate(45,30)"/>
<path d="M0 0 C4.95 0 9.9 0 15 0 C15 4.95 15 9.9 15 15 C10.05 15 5.1 15 0 15 C0 10.05 0 5.1 0 0 Z " fill="#FFFFFF" transform="translate(30,30)"/>
<path d="M0 0 C4.95 0 9.9 0 15 0 C15 4.95 15 9.9 15 15 C10.05 15 5.1 15 0 15 C0 10.05 0 5.1 0 0 Z " fill="#FFFFFF" transform="translate(345,15)"/>
<path d="M0 0 C4.95 0 9.9 0 15 0 C15 4.95 15 9.9 15 15 C10.05 15 5.1 15 0 15 C0 10.05 0 5.1 0 0 Z " fill="#FFFFFF" transform="translate(315,15)"/>
<path d="M0 0 C4.95 0 9.9 0 15 0 C15 4.95 15 9.9 15 15 C10.05 15 5.1 15 0 15 C0 10.05 0 5.1 0 0 Z " fill="#EDEEEE" transform="translate(270,15)"/>
<path d="M0 0 C4.95 0 9.9 0 15 0 C15 4.95 15 9.9 15 15 C10.05 15 5.1 15 0 15 C0 10.05 0 5.1 0 0 Z " fill="#FFFFFF" transform="translate(255,15)"/>
<path d="M0 0 C4.95 0 9.9 0 15 0 C15 4.95 15 9.9 15 15 C10.05 15 5.1 15 0 15 C0 10.05 0 5.1 0 0 Z " fill="#FFFFFF" transform="translate(225,15)"/>
<path d="M0 0 C4.95 0 9.9 0 15 0 C15 4.95 15 9.9 15 15 C10.05 15 5.1 15 0 15 C0 10.05 0 5.1 0 0 Z " fill="#EDEEEE" transform="translate(210,15)"/>
<path d="M0 0 C4.95 0 9.9 0 15 0 C15 4.95 15 9.9 15 15 C10.05 15 5.1 15 0 15 C0 10.05 0 5.1 0 0 Z " fill="#FFFFFF" transform="translate(195,15)"/>
<path d="M0 0 C4.95 0 9.9 0 15 0 C15 4.95 15 9.9 15 15 C10.05 15 5.1 15 0 15 C0 10.05 0 5.1 0 0 Z " fill="#EDEEEE" transform="translate(180,15)"/>
<path d="M0 0 C4.95 0 9.9 0 15 0 C15 4.95 15 9.9 15 15 C10.05 15 5.1 15 0 15 C0 10.05 0 5.1 0 0 Z " fill="#FFFFFF" transform="translate(165,15)"/>
<path d="M0 0 C4.95 0 9.9 0 15 0 C15 4.95 15 9.9 15 15 C10.05 15 5.1 15 0 15 C0 10.05 0 5.1 0 0 Z " fill="#EDEEEE" transform="translate(150,15)"/>
<path d="M0 0 C4.95 0 9.9 0 15 0 C15 4.95 15 9.9 15 15 C10.05 15 5.1 15 0 15 C0 10.05 0 5.1 0 0 Z " fill="#FFFFFF" transform="translate(135,15)"/>
<path d="M0 0 C4.95 0 9.9 0 15 0 C15 4.95 15 9.9 15 15 C10.05 15 5.1 15 0 15 C0 10.05 0 5.1 0 0 Z " fill="#EDEEEE" transform="translate(120,15)"/>
<path d="M0 0 C4.95 0 9.9 0 15 0 C15 4.95 15 9.9 15 15 C10.05 15 5.1 15 0 15 C0 10.05 0 5.1 0 0 Z " fill="#FFFFFF" transform="translate(105,15)"/>
<path d="M0 0 C4.95 0 9.9 0 15 0 C15 4.95 15 9.9 15 15 C10.05 15 5.1 15 0 15 C0 10.05 0 5.1 0 0 Z " fill="#EDEEEE" transform="translate(90,15)"/>
<path d="M0 0 C4.95 0 9.9 0 15 0 C15 4.95 15 9.9 15 15 C10.05 15 5.1 15 0 15 C0 10.05 0 5.1 0 0 Z " fill="#FFFFFF" transform="translate(330,0)"/>
<path d="M0 0 C4.95 0 9.9 0 15 0 C15 4.95 15 9.9 15 15 C10.05 15 5.1 15 0 15 C0 10.05 0 5.1 0 0 Z " fill="#FFFFFF" transform="translate(270,0)"/>
<path d="M0 0 C4.95 0 9.9 0 15 0 C15 4.95 15 9.9 15 15 C10.05 15 5.1 15 0 15 C0 10.05 0 5.1 0 0 Z " fill="#EDEEEE" transform="translate(255,0)"/>
<path d="M0 0 C4.95 0 9.9 0 15 0 C15 4.95 15 9.9 15 15 C10.05 15 5.1 15 0 15 C0 10.05 0 5.1 0 0 Z " fill="#FFFFFF" transform="translate(240,0)"/>
<path d="M0 0 C4.95 0 9.9 0 15 0 C15 4.95 15 9.9 15 15 C10.05 15 5.1 15 0 15 C0 10.05 0 5.1 0 0 Z " fill="#EDEEEE" transform="translate(225,0)"/>
<path d="M0 0 C4.95 0 9.9 0 15 0 C15 4.95 15 9.9 15 15 C10.05 15 5.1 15 0 15 C0 10.05 0 5.1 0 0 Z " fill="#FFFFFF" transform="translate(210,0)"/>
<path d="M0 0 C4.95 0 9.9 0 15 0 C15 4.95 15 9.9 15 15 C10.05 15 5.1 15 0 15 C0 10.05 0 5.1 0 0 Z " fill="#EDEEEE" transform="translate(195,0)"/>
<path d="M0 0 C4.95 0 9.9 0 15 0 C15 4.95 15 9.9 15 15 C10.05 15 5.1 15 0 15 C0 10.05 0 5.1 0 0 Z " fill="#FFFFFF" transform="translate(180,0)"/>
<path d="M0 0 C4.95 0 9.9 0 15 0 C15 4.95 15 9.9 15 15 C10.05 15 5.1 15 0 15 C0 10.05 0 5.1 0 0 Z " fill="#EDEEEE" transform="translate(165,0)"/>
<path d="M0 0 C4.95 0 9.9 0 15 0 C15 4.95 15 9.9 15 15 C10.05 15 5.1 15 0 15 C0 10.05 0 5.1 0 0 Z " fill="#FFFFFF" transform="translate(150,0)"/>
<path d="M0 0 C4.95 0 9.9 0 15 0 C15 4.95 15 9.9 15 15 C10.05 15 5.1 15 0 15 C0 10.05 0 5.1 0 0 Z " fill="#EDEEEE" transform="translate(135,0)"/>
<path d="M0 0 C4.95 0 9.9 0 15 0 C15 4.95 15 9.9 15 15 C10.05 15 5.1 15 0 15 C0 10.05 0 5.1 0 0 Z " fill="#FFFFFF" transform="translate(120,0)"/>
<path d="M0 0 C4.95 0 9.9 0 15 0 C15 4.95 15 9.9 15 15 C10.05 15 5.1 15 0 15 C0 10.05 0 5.1 0 0 Z " fill="#EDEEEE" transform="translate(105,0)"/>
<path d="M0 0 C4.95 0 9.9 0 15 0 C15 4.95 15 9.9 15 15 C10.05 15 5.1 15 0 15 C0 10.05 0 5.1 0 0 Z " fill="#FFFFFF" transform="translate(90,0)"/>
<path d="M0 0 C4.95 0 9.9 0 15 0 C15 4.95 15 9.9 15 15 C10.05 15 5.1 15 0 15 C0 10.05 0 5.1 0 0 Z " fill="#EDEEEE" transform="translate(75,0)"/>
<path d="M0 0 C4.95 0 9.9 0 15 0 C15 4.95 15 9.9 15 15 C10.05 15 5.1 15 0 15 C0 10.05 0 5.1 0 0 Z " fill="#FFFFFF" transform="translate(0,0)"/>
<path d="M0 0 C3.61328125 0.03255208 7.2265625 0.06510417 10.83984375 0.09765625 C10.83984375 5.04765625 10.83984375 9.99765625 10.83984375 15.09765625 C5.88984375 15.09765625 0.93984375 15.09765625 -4.16015625 15.09765625 C-4.2578125 4.2578125 -4.2578125 4.2578125 -4.16015625 1.09765625 C-3.16015625 0.09765625 -3.16015625 0.09765625 0 0 Z " fill="#FEFEFE" transform="translate(334.16015625,149.90234375)"/>
<path d="M0 0 C3.61328125 0.03255208 7.2265625 0.06510417 10.83984375 0.09765625 C10.83984375 5.04765625 10.83984375 9.99765625 10.83984375 15.09765625 C5.88984375 15.09765625 0.93984375 15.09765625 -4.16015625 15.09765625 C-4.2578125 4.2578125 -4.2578125 4.2578125 -4.16015625 1.09765625 C-3.16015625 0.09765625 -3.16015625 0.09765625 0 0 Z " fill="#FEFEFE" transform="translate(274.16015625,119.90234375)"/>
<path d="M0 0 C4.95 0 9.9 0 15 0 C15 4.95 15 9.9 15 15 C4.16015625 15.09765625 4.16015625 15.09765625 1 15 C0 14 0 14 -0.09765625 10.83984375 C-0.04882812 5.41992188 -0.04882812 5.41992188 0 0 Z " fill="#FDFDFD" transform="translate(210,120)"/>
<path d="M0 0 C4.29 0 8.58 0 13 0 C11.700625 1.7015625 11.700625 1.7015625 10.375 3.4375 C3.34880478 12.86125946 -0.75287508 20.15231329 -2 32 C-2.33 31.34 -2.66 30.68 -3 30 C-4.32 30 -5.64 30 -7 30 C-7.66 25.05 -8.32 20.1 -9 15 C-6.36 14.67 -3.72 14.34 -1 14 C-1.01160156 13.40832031 -1.02320313 12.81664062 -1.03515625 12.20703125 C-1.04417969 11.41683594 -1.05320313 10.62664063 -1.0625 9.8125 C-1.07410156 9.03519531 -1.08570313 8.25789063 -1.09765625 7.45703125 C-1 5 -1 5 0 0 Z " fill="#F9FAFB" transform="translate(225,45)"/>
<path d="M0 0 C4.98046875 0.09765625 4.98046875 0.09765625 9.9609375 0.1953125 C9.9609375 5.1453125 9.9609375 10.0953125 9.9609375 15.1953125 C5.0109375 15.1953125 0.0609375 15.1953125 -5.0390625 15.1953125 C-5.234375 5.234375 -5.234375 5.234375 -5.0390625 2.1953125 C-3.0390625 0.1953125 -3.0390625 0.1953125 0 0 Z " fill="#FDFDFD" transform="translate(305.0390625,149.8046875)"/>
<path d="M0 0 C4.98046875 0.09765625 4.98046875 0.09765625 9.9609375 0.1953125 C9.9609375 5.1453125 9.9609375 10.0953125 9.9609375 15.1953125 C5.0109375 15.1953125 0.0609375 15.1953125 -5.0390625 15.1953125 C-5.234375 5.234375 -5.234375 5.234375 -5.0390625 2.1953125 C-3.0390625 0.1953125 -3.0390625 0.1953125 0 0 Z " fill="#FEFEFE" transform="translate(215.0390625,89.8046875)"/>
<path d="M0 0 C0.33 0 0.66 0 1 0 C1 5.61 1 11.22 1 17 C2.98 17 4.96 17 7 17 C7 16.01 7 15.02 7 14 C7.66 14 8.32 14 9 14 C9 18.95 9 23.9 9 29 C4.05 29 -0.9 29 -6 29 C-6 24.05 -6 19.1 -6 14 C-4.02 14 -2.04 14 0 14 C0 9.38 0 4.76 0 0 Z " fill="#FEFEFE" transform="translate(96,136)"/>
<path d="M0 0 C0 4.95 0 9.9 0 15 C-4.95 15 -9.9 15 -15 15 C-15.29296875 5.0390625 -15.29296875 5.0390625 -15 2 C-10.25368713 -1.16420858 -5.63243123 -0.12112755 0 0 Z " fill="#FDFDFD" transform="translate(285,150)"/>
<path d="M0 0 C3.63 0 7.26 0 11 0 C11 4.95 11 9.9 11 15 C6.05 15 1.1 15 -4 15 C-4 10.38 -4 5.76 -4 1 C-2.68 1.33 -1.36 1.66 0 2 C0 1.34 0 0.68 0 0 Z " fill="#FDFDFD" transform="translate(244,150)"/>
<path d="M0 0 C3.3 0 6.6 0 10 0 C10 4.95 10 9.9 10 15 C5.05 15 0.1 15 -5 15 C-5 10.38 -5 5.76 -5 1 C-2.525 1.495 -2.525 1.495 0 2 C0 1.34 0 0.68 0 0 Z " fill="#FDFDFC" transform="translate(215,150)"/>
<path d="M0 0 C1.8871875 0.0309375 1.8871875 0.0309375 3.8125 0.0625 C3.8125 5.0125 3.8125 9.9625 3.8125 15.0625 C-1.1375 15.0625 -6.0875 15.0625 -11.1875 15.0625 C-11.578125 6.76171875 -11.578125 6.76171875 -11.1875 4.0625 C-7.86087623 0.79984976 -4.56500435 -0.07483614 0 0 Z " fill="#FDFDFD" transform="translate(71.1875,149.9375)"/>
<path d="M0 0 C0.74056641 0.00902344 1.48113281 0.01804687 2.24414062 0.02734375 C4.05873467 0.05075787 5.87316071 0.08662385 7.6875 0.125 C7.6875 0.455 7.6875 0.785 7.6875 1.125 C4.3875 1.125 1.0875 1.125 -2.3125 1.125 C-2.3125 3.105 -2.3125 5.085 -2.3125 7.125 C-7.2625 7.125 -12.2125 7.125 -17.3125 7.125 C-17.3125 12.075 -17.3125 17.025 -17.3125 22.125 C-20.6125 22.125 -23.9125 22.125 -27.3125 22.125 C-27.99609375 19.8671875 -27.99609375 19.8671875 -28.3125 17.125 C-22.1959378 6.55060434 -12.01576352 -0.27918664 0 0 Z " fill="#E9EBEE" transform="translate(47.3125,22.875)"/>
<path d="M0 0 C5.8022175 -0.36263859 9.63999211 0.74315457 15 3 C14.67 6.96 14.34 10.92 14 15 C9.05 15 4.1 15 -1 15 C-1.125 2.25 -1.125 2.25 0 0 Z " fill="#EBECEC" transform="translate(46,150)"/>
<path d="M0 0 C4.95 0 9.9 0 15 0 C15 3.96 15 7.92 15 12 C9.43695818 14.78152091 5.19552319 14.13468529 -1 14 C-0.67 9.38 -0.34 4.76 0 0 Z " fill="#F9FAFC" transform="translate(45,75)"/>
<path d="M0 0 C1.65 0.33 3.3 0.66 5 1 C5 5.95 5 10.9 5 16 C0.05 16 -4.9 16 -10 16 C-10 11.38 -10 6.76 -10 2 C-5.545 2.99 -5.545 2.99 -1 4 C-0.67 2.68 -0.34 1.36 0 0 Z " fill="#FDFDFD" transform="translate(160,149)"/>
<path d="M0 0 C3.96 0.33 7.92 0.66 12 1 C12 5.95 12 10.9 12 16 C8.73118027 16.81720493 6.53000931 17.11073543 3.25 17.0625 C2.45078125 17.05347656 1.6515625 17.04445313 0.828125 17.03515625 C0.22484375 17.02355469 -0.3784375 17.01195313 -1 17 C-1.02691685 14.54159395 -1.04679802 12.08348118 -1.0625 9.625 C-1.07087891 8.92632812 -1.07925781 8.22765625 -1.08789062 7.5078125 C-1.11328125 2.2265625 -1.11328125 2.2265625 0 0 Z " fill="#FDFDFD" transform="translate(18,44)"/>
<path d="M0 0 C-0.33 4.95 -0.66 9.9 -1 15 C-5.95 15 -10.9 15 -16 15 C-16 11.37 -16 7.74 -16 4 C-10.53812142 1.00897126 -6.20289724 0 0 0 Z " fill="#F7F7F8" transform="translate(136,150)"/>
<path d="M0 0 C4.95 0 9.9 0 15 0 C15.09765625 9.27734375 15.09765625 9.27734375 15 12 C13.05909174 13.94090826 9.52706098 13.39919435 6.9375 13.5625 C4.648125 13.706875 2.35875 13.85125 0 14 C0 9.38 0 4.76 0 0 Z " fill="#FDFDFD" transform="translate(240,30)"/>
<path d="M0 0 C4.95 0 9.9 0 15 0 C15 4.62 15 9.24 15 14 C10.05 13.67 5.1 13.34 0 13 C0 8.71 0 4.42 0 0 Z " fill="#FCFBFB" transform="translate(120,30)"/>
<path d="M0 0 C4.95 0 9.9 0 15 0 C15 4.29 15 8.58 15 13 C10.05 13 5.1 13 0 13 C0 8.71 0 4.42 0 0 Z " fill="#FEFDFB" transform="translate(180,30)"/>
<path d="M0 0 C0.66 0.33 1.32 0.66 2 1 C2.5625 3.00390625 2.5625 3.00390625 3 5.5625 C3.8001853 10.14213194 4.86067135 14.44268539 6 19 C0.39 19 -5.22 19 -11 19 C-9.72936448 15.18809343 -8.51749676 11.73849288 -6.875 8.125 C-6.52179688 7.34382813 -6.16859375 6.56265625 -5.8046875 5.7578125 C-5.53914062 5.17773438 -5.27359375 4.59765625 -5 4 C-3.35 4 -1.7 4 0 4 C0 2.68 0 1.36 0 0 Z " fill="#EEE8E0" transform="translate(159,71)"/>
<path d="M0 0 C5.49404762 10.56547619 5.49404762 10.56547619 5 16 C2.03 16.33 -0.94 16.66 -4 17 C-4.66 16.01 -5.32 15.02 -6 14 C-6.99 14.495 -6.99 14.495 -8 15 C-11.4375 15.375 -11.4375 15.375 -15 15 C-15.99 13.35 -16.98 11.7 -18 10 C-13.05 9.67 -8.1 9.34 -3 9 C-3 6.36 -3 3.72 -3 1 C-2.01 0.67 -1.02 0.34 0 0 Z " fill="#EAEBEB" transform="translate(131,134)"/>
<path d="M0 0 C4.95 0 9.9 0 15 0 C15 4.95 15 9.9 15 15 C14.67 14.34 14.34 13.68 14 13 C12.34795544 12.29788106 10.68076231 11.63028587 9 11 C8.67 10.67 8.34 10.34 8 10 C5.32941149 9.85884839 2.67567762 9.95752893 0 10 C0 6.7 0 3.4 0 0 Z " fill="#FCF9F9" transform="translate(345,75)"/>
<path d="M0 0 C2.31 0.33 4.62 0.66 7 1 C7 5.95 7 10.9 7 16 C2.38 16 -2.24 16 -7 16 C-5.76302083 13.29817708 -4.52604167 10.59635417 -3.2890625 7.89453125 C-2.12678149 5.28468208 -1.04075219 2.66024041 0 0 Z " fill="#E7E9EE" transform="translate(278,104)"/>
<path d="M0 0 C0.33 0 0.66 0 1 0 C1.4998202 6.12279743 0.45350289 9.10753758 -3 14 C-6.23994545 16.16706878 -8.91080696 16.21640936 -12.75 16.125 C-13.73484375 16.10695313 -14.7196875 16.08890625 -15.734375 16.0703125 C-16.48203125 16.04710938 -17.2296875 16.02390625 -18 16 C-18 15.67 -18 15.34 -18 15 C-15.69 15 -13.38 15 -11 15 C-11 10.71 -11 6.42 -11 2 C-7.37 2 -3.74 2 0 2 C0 1.34 0 0.68 0 0 Z " fill="#F8FAFC" transform="translate(266,73)"/>
<path d="M0 0 C0.33 0 0.66 0 1 0 C1 14.52 1 29.04 1 44 C0.67 44 0.34 44 0 44 C0 39.05 0 34.1 0 29 C-1.32 29 -2.64 29 -4 29 C-4 33.95 -4 38.9 -4 44 C-4.33 44 -4.66 44 -5 44 C-5 30.8 -5 17.6 -5 4 C-4.67 4 -4.34 4 -4 4 C-4 7.3 -4 10.6 -4 14 C-2.68 14 -1.36 14 0 14 C0 9.38 0 4.76 0 0 Z " fill="#FDFDFD" transform="translate(285,46)"/>
<path d="M0 0 C5.54518774 -0.16803599 9.78757146 -0.13843222 15 2 C15 4.64 15 7.28 15 10 C10.05 10 5.1 10 0 10 C0 6.7 0 3.4 0 0 Z " fill="#F8FAFC" transform="translate(240,125)"/>
<path d="M0 0 C1.98 0 3.96 0 6 0 C6 7.26 6 14.52 6 22 C4.02 22 2.04 22 0 22 C0 14.74 0 7.48 0 0 Z " fill="#6E6F73" transform="translate(97,131)"/>
<path d="M0 0 C4.95 0 9.9 0 15 0 C15 1.65 15 3.3 15 5 C16.32 5.33 17.64 5.66 19 6 C14.05 6 9.1 6 4 6 C4 9.63 4 13.26 4 17 C3.67 16.34 3.34 15.68 3 15 C2.01 15 1.02 15 0 15 C0 10.05 0 5.1 0 0 Z " fill="#FCFCFC" transform="translate(45,45)"/>
<path d="M0 0 C0 3.96 0 7.92 0 12 C-4.95 12 -9.9 12 -15 12 C-15 10.68 -15 9.36 -15 8 C-17.64 8 -20.28 8 -23 8 C-23 7.67 -23 7.34 -23 7 C-22.24976563 6.91363281 -21.49953125 6.82726562 -20.7265625 6.73828125 C-14.05589104 5.82253416 -8.76456785 4.27996886 -2.86328125 1.0234375 C-1 0 -1 0 0 0 Z " fill="#EEECE8" transform="translate(210,93)"/>
<path d="M0 0 C3.63 0 7.26 0 11 0 C11 0.33 11 0.66 11 1 C13.64 1.33 16.28 1.66 19 2 C19 2.33 19 2.66 19 3 C15.04 3 11.08 3 7 3 C7 12.9 7 22.8 7 33 C6.67 33 6.34 33 6 33 C5.67 27.06 5.34 21.12 5 15 C3.35 15 1.7 15 0 15 C0 10.05 0 5.1 0 0 Z " fill="#E4E6E9" transform="translate(15,120)"/>
<path d="M0 0 C0.33 0 0.66 0 1 0 C1.10957031 1.11117187 1.21914063 2.22234375 1.33203125 3.3671875 C2.18956703 11.57094644 3.26501154 19.16798758 6 27 C2.7 27 -0.6 27 -4 27 C-4 22.05 -4 17.1 -4 12 C-3.01 12 -2.02 12 -1 12 C-0.67 8.04 -0.34 4.08 0 0 Z " fill="#EDE1E0" transform="translate(306,63)"/>
<path d="M0 0 C0.33 0 0.66 0 1 0 C1 2.64 1 5.28 1 8 C4.3 8 7.6 8 11 8 C11 12.29 11 16.58 11 21 C5.59552487 19.91910497 4.49533798 18.98080159 1 15 C-0.44207941 12.11584117 -0.09394887 9.58278472 -0.0625 6.375 C-0.05347656 5.18648438 -0.04445313 3.99796875 -0.03515625 2.7734375 C-0.02355469 1.85820313 -0.01195313 0.94296875 0 0 Z " fill="#FBF8F8" transform="translate(109,67)"/>
<path d="M0 0 C3.3 0 6.6 0 10 0 C9.566875 1.423125 9.13375 2.84625 8.6875 4.3125 C7.02436083 9.84837752 5.49655603 15.41710303 4 21 C3.67 21 3.34 21 3 21 C3 19.02 3 17.04 3 15 C2.01 15 1.02 15 0 15 C0 10.05 0 5.1 0 0 Z " fill="#F9FBFB" transform="translate(0,30)"/>
<path d="M0 0 C4.95 0 9.9 0 15 0 C11.56303243 5.72827929 8.53025455 8.31316363 3 12 C2.01 12 1.02 12 0 12 C0 8.04 0 4.08 0 0 Z " fill="#E9EBEE" transform="translate(60,75)"/>
<path d="M0 0 C3.96 0 7.92 0 12 0 C12 4.95 12 9.9 12 15 C6.32764505 11.59658703 6.32764505 11.59658703 3.75 8.0625 C3.24984375 7.39347656 2.7496875 6.72445312 2.234375 6.03515625 C1 4 1 4 0 0 Z " fill="#FDF9F9" transform="translate(348,45)"/>
<path d="M0 0 C0.33 0 0.66 0 1 0 C1 9.24 1 18.48 1 28 C-0.98 27.67 -2.96 27.34 -5 27 C-5 22.05 -5 17.1 -5 12 C-3.35 12 -1.7 12 0 12 C0 8.04 0 4.08 0 0 Z " fill="#FDFDFC" transform="translate(20,123)"/>
<path d="M0 0 C2.64 0 5.28 0 8 0 C7.85816304 1.75032844 7.71136571 3.50025534 7.5625 5.25 C7.48128906 6.22453125 7.40007812 7.1990625 7.31640625 8.203125 C7.04925416 10.56461753 6.64628032 12.71901065 6 15 C4.35 15 2.7 15 1 15 C-0.32286246 10.03926578 -0.08893197 5.08888488 0 0 Z " fill="#FCF9F6" transform="translate(153,60)"/>
<path d="M0 0 C0.33 0.66 0.66 1.32 1 2 C3.52733235 2.65555119 3.52733235 2.65555119 6 3 C6.33 5.31 6.66 7.62 7 10 C5.75336669 10.50833591 4.50250613 11.00631145 3.25 11.5 C2.55390625 11.7784375 1.8578125 12.056875 1.140625 12.34375 C-1 13 -1 13 -5 13 C-5.50477602 7.69985182 -4.20817314 5.18034682 -1 1 C-0.67 0.67 -0.34 0.34 0 0 Z " fill="#EEE7E6" transform="translate(324,57)"/>
<path d="M0 0 C3.3 0 6.6 0 10 0 C9.59723091 5.63876723 7.88914951 8.11085049 4 12 C2.68 12.33 1.36 12.66 0 13 C0 8.71 0 4.42 0 0 Z " fill="#FDFAF4" transform="translate(195,75)"/>
<path d="M0 0 C0.05391993 1.79133978 0.09275571 3.58313899 0.125 5.375 C0.14820313 6.37273437 0.17140625 7.37046875 0.1953125 8.3984375 C0 11 0 11 -2 13 C-2 12.34 -2 11.68 -2 11 C-5.3 11 -8.6 11 -12 11 C-12 10.01 -12 9.02 -12 8 C-12.99 7.34 -13.98 6.68 -15 6 C-14.32453125 5.81824219 -13.6490625 5.63648437 -12.953125 5.44921875 C-12.06109375 5.19785156 -11.1690625 4.94648437 -10.25 4.6875 C-9.36828125 4.44386719 -8.4865625 4.20023437 -7.578125 3.94921875 C-5.20796053 3.07656728 -2.31952518 0 0 0 Z " fill="#E2E6ED" transform="translate(267,94)"/>
<path d="M0 0 C0.33 0 0.66 0 1 0 C1 2.31 1 4.62 1 7 C2.32 7 3.64 7 5 7 C4.85764543 8.72945653 4.71095618 10.45855654 4.5625 12.1875 C4.48128906 13.15042969 4.40007812 14.11335938 4.31640625 15.10546875 C4.02333849 17.78649602 3.57296246 20.3662986 3 23 C1.35 22.67 -0.3 22.34 -2 22 C-1.85811015 19.45805839 -1.71160845 16.91652007 -1.5625 14.375 C-1.52318359 13.66214844 -1.48386719 12.94929688 -1.44335938 12.21484375 C-1.19690319 8.08196318 -0.76529947 4.07730976 0 0 Z " fill="#FAF9F9" transform="translate(92,53)"/>
<path d="M0 0 C0 0.33 0 0.66 0 1 C-3.3 1 -6.6 1 -10 1 C-10 2.98 -10 4.96 -10 7 C-14.95 7 -19.9 7 -25 7 C-24 4 -24 4 -20.9375 1.8125 C-14.49324671 -1.29729562 -6.96429789 -0.30426544 0 0 Z " fill="#DCE2EE" transform="translate(55,23)"/>
<path d="M0 0 C3.3 0 6.6 0 10 0 C10.25 2.8125 10.25 2.8125 10 6 C7.16746984 9.15936057 4.10303158 9.53374641 0 10 C0 6.7 0 3.4 0 0 Z " fill="#F6F9FB" transform="translate(255,105)"/>
<path d="M0 0 C1.45792884 -0.05399736 2.91642712 -0.09279177 4.375 -0.125 C5.18710937 -0.14820312 5.99921875 -0.17140625 6.8359375 -0.1953125 C9 0 9 0 11 2 C11.1875 4.5625 11.1875 4.5625 11 7 C10 8 10 8 7.71484375 8.09765625 C6.34005859 8.08025391 6.34005859 8.08025391 4.9375 8.0625 C4.01839844 8.05347656 3.09929688 8.04445312 2.15234375 8.03515625 C1.44207031 8.02355469 0.73179688 8.01195312 0 8 C0 5.36 0 2.72 0 0 Z " fill="#F2F3F3" transform="translate(28,128)"/>
<path d="M0 0 C0 4.29 0 8.58 0 13 C-3.3 13.33 -6.6 13.66 -10 14 C-9.16815751 10.30292226 -4.77769818 0 0 0 Z " fill="#F6F8FC" transform="translate(90,77)"/>
<path d="M0 0 C2.0839403 0.11443603 4.16716493 0.24195547 6.25 0.375 C7.41015625 0.44460937 8.5703125 0.51421875 9.765625 0.5859375 C12.70694334 0.96248308 14.49949011 1.4774123 17 3 C16.67 3.99 16.34 4.98 16 6 C11.05 6 6.1 6 1 6 C0.67 4.02 0.34 2.04 0 0 Z " fill="#F7F9FD" transform="translate(239,99)"/>
<path d="M0 0 C-0.33 3.63 -0.66 7.26 -1 11 C-7.20805369 9.75838926 -7.20805369 9.75838926 -10 6 C-10 3.875 -10 3.875 -9 2 C-5.77075162 -0.30660598 -4.24008225 0 0 0 Z " fill="#FAF0EF" transform="translate(331,77)"/>
<path d="M0 0 C4.95 0 9.9 0 15 0 C15 1.65 15 3.3 15 5 C10.05 5 5.1 5 0 5 C0 3.35 0 1.7 0 0 Z " fill="#FDFDFD" transform="translate(75,45)"/>
<path d="M0 0 C0.97582031 0.00902344 1.95164062 0.01804687 2.95703125 0.02734375 C3.69308594 0.03894531 4.42914063 0.05054687 5.1875 0.0625 C5.1875 1.7125 5.1875 3.3625 5.1875 5.0625 C0.2375 5.0625 -4.7125 5.0625 -9.8125 5.0625 C-10.1425 3.7425 -10.4725 2.4225 -10.8125 1.0625 C-7.13862505 0.20951624 -3.7677607 -0.04539471 0 0 Z " fill="#FDF8F8" transform="translate(339.8125,99.9375)"/>
<path d="M0 0 C2.97 0 5.94 0 9 0 C8.67 0.99 8.34 1.98 8 3 C6.02 3 4.04 3 2 3 C2.495 3.680625 2.99 4.36125 3.5 5.0625 C5.30365111 8.59465009 5.23021353 11.08636991 5 15 C3.35 15 1.7 15 0 15 C0 10.05 0 5.1 0 0 Z " fill="#FCF9F0" transform="translate(195,135)"/>
<path d="M0 0 C4.95 0.33 9.9 0.66 15 1 C15 2.32 15 3.64 15 5 C10.05 5 5.1 5 0 5 C0 3.35 0 1.7 0 0 Z " fill="#FDFDFD" transform="translate(180,100)"/>
<path d="M0 0 C0 1.65 0 3.3 0 5 C-4.95 5 -9.9 5 -15 5 C-14.67 3.68 -14.34 2.36 -14 1 C-9.27685687 0.22887459 -4.78478822 -0.09764874 0 0 Z " fill="#EAECEE" transform="translate(60,100)"/>
<path d="M0 0 C3.63 0 7.26 0 11 0 C11 2 11 2 9.35546875 3.7265625 C8.64003906 4.35304688 7.92460937 4.97953125 7.1875 5.625 C6.12595703 6.57246094 6.12595703 6.57246094 5.04296875 7.5390625 C3 9 3 9 0 9 C0 6.03 0 3.06 0 0 Z " fill="#F7F9FC" transform="translate(15,15)"/>
<path d="M0 0 C2.31 0 4.62 0 7 0 C7 3.63 7 7.26 7 11 C3.23085596 9.11542798 1.99525994 8.4917049 0 5 C-0.1875 2.25 -0.1875 2.25 0 0 Z " fill="#FCFAF7" transform="translate(173,75)"/>
<path d="M0 0 C1.32 0 2.64 0 4 0 C4 4.95 4 9.9 4 15 C2.68 15 1.36 15 0 15 C0 10.05 0 5.1 0 0 Z " fill="#EEEFEF" transform="translate(281,75)"/>
<path d="M0 0 C1.32 0 2.64 0 4 0 C4 4.95 4 9.9 4 15 C2.68 15 1.36 15 0 15 C0 10.05 0 5.1 0 0 Z " fill="#EEEFEF" transform="translate(281,45)"/>
<path d="M0 0 C3.3 0 6.6 0 10 0 C10 2.97 10 5.94 10 9 C5.92107309 6.96053655 3.3433916 5.03944691 0 2 C0 1.34 0 0.68 0 0 Z " fill="#FBF6F5" transform="translate(140,45)"/>
<path d="M0 0 C0.33 0 0.66 0 1 0 C1.55353075 11.52164009 1.55353075 11.52164009 -2 17 C-2.99 17 -3.98 17 -5 17 C-5 13.7 -5 10.4 -5 7 C-3.35 7 -1.7 7 0 7 C0 4.69 0 2.38 0 0 Z " fill="#FAF6F6" transform="translate(140,68)"/>
<path d="M0 0 C0.33 0 0.66 0 1 0 C1 4.95 1 9.9 1 15 C0.34 15 -0.32 15 -1 15 C-1.66 15.99 -2.32 16.98 -3 18 C-3.08150744 15.93816367 -3.1394194 13.87538651 -3.1875 11.8125 C-3.22230469 10.66394531 -3.25710937 9.51539062 -3.29296875 8.33203125 C-2.97545546 4.72084678 -2.15237035 2.87886312 0 0 Z " fill="#E2E7EE" transform="translate(239,60)"/>
<path d="M0 0 C2 2 2 2 2.1953125 4.8203125 C2.16050781 6.45613281 2.16050781 6.45613281 2.125 8.125 C2.10695312 9.22070312 2.08890625 10.31640625 2.0703125 11.4453125 C2.04710937 12.28835937 2.02390625 13.13140625 2 14 C0.35 13.67 -1.3 13.34 -3 13 C-2.52060632 8.28596212 -2.03165952 4.33420699 0 0 Z " fill="#E8EAEB" transform="translate(163,136)"/>
<path d="M0 0 C3.96 0 7.92 0 12 0 C12 0.66 12 1.32 12 2 C10.56570999 2.67354499 9.12742943 3.33859701 7.6875 4 C6.48673828 4.556875 6.48673828 4.556875 5.26171875 5.125 C3 6 3 6 0 6 C0 4.02 0 2.04 0 0 Z " fill="#FAF3F2" transform="translate(330,60)"/>
<path d="M0 0 C1.98 0.495 1.98 0.495 4 1 C4.99 5.62 5.98 10.24 7 15 C5.68 15 4.36 15 3 15 C2.96261719 14.40832031 2.92523438 13.81664062 2.88671875 13.20703125 C2.48623099 8.39332549 1.9614965 4.99158223 -1 1 C-0.67 0.67 -0.34 0.34 0 0 Z " fill="#FAB522" transform="translate(197,137)"/>
<path d="M0 0 C0 3.96 0 7.92 0 12 C-1.32 11.34 -2.64 10.68 -4 10 C-4.9375 7.125 -4.9375 7.125 -5 4 C-2.78947368 0 -2.78947368 0 0 0 Z " fill="#E0E2E3" transform="translate(45,137)"/>
<path d="M0 0 C2.97 0 5.94 0 9 0 C9 0.66 9 1.32 9 2 C7.5390625 3.2890625 7.5390625 3.2890625 5.625 4.625 C4.99851563 5.07101563 4.37203125 5.51703125 3.7265625 5.9765625 C2 7 2 7 0 7 C0 4.69 0 2.38 0 0 Z " fill="#FDFBF4" transform="translate(165,45)"/>
<path d="M0 0 C1.98 0 3.96 0 6 0 C5.34 2.97 4.68 5.94 4 9 C3.01 8.67 2.02 8.34 1 8 C0.67 5.36 0.34 2.72 0 0 Z " fill="#F5F5F5" transform="translate(80,135)"/>
<path d="M0 0 C2.475 0.99 2.475 0.99 5 2 C5 3.98 5 5.96 5 8 C3.35 8.33 1.7 8.66 0 9 C0 6.03 0 3.06 0 0 Z " fill="#FDF9EF" transform="translate(225,141)"/>
<path d="M0 0 C2.31 0.33 4.62 0.66 7 1 C7.33 2.32 7.66 3.64 8 5 C4.7 5 1.4 5 -2 5 C-1.34 3.35 -0.68 1.7 0 0 Z " fill="#E6E8EA" transform="translate(115,135)"/>
<path d="M0 0 C0.33 0 0.66 0 1 0 C1 2.31 1 4.62 1 7 C-2.96 7 -6.92 7 -11 7 C-11 6.01 -11 5.02 -11 4 C-10.37351563 3.96261719 -9.74703125 3.92523438 -9.1015625 3.88671875 C-8.28429687 3.82097656 -7.46703125 3.75523437 -6.625 3.6875 C-5.81289062 3.62949219 -5.00078125 3.57148438 -4.1640625 3.51171875 C-1.62078662 3.17009472 -1.62078662 3.17009472 0 0 Z " fill="#F9B92E" transform="translate(243,145)"/>
<path d="M0 0 C2.31 0.33 4.62 0.66 7 1 C7.33 2.32 7.66 3.64 8 5 C4.7 5 1.4 5 -2 5 C-1.34 3.35 -0.68 1.7 0 0 Z " fill="#E8EAEC" transform="translate(56,135)"/>
<path d="M0 0 C2.97 0.495 2.97 0.495 6 1 C5.34 3.97 4.68 6.94 4 10 C3.34 10 2.68 10 2 10 C1.34 6.7 0.68 3.4 0 0 Z " fill="#E4E7E9" transform="translate(152,134)"/>
<path d="M0 0 C0.99 0 1.98 0 3 0 C7 5.25714286 7 5.25714286 7 8 C4.69 7.67 2.38 7.34 0 7 C0 4.69 0 2.38 0 0 Z " fill="#F1F4FA" transform="translate(225,113)"/>
<path d="M0 0 C5.625 -0.25 5.625 -0.25 9 2 C9 2.99 9 3.98 9 5 C6.36 5 3.72 5 1 5 C0.67 3.35 0.34 1.7 0 0 Z " fill="#F4F6FA" transform="translate(254,55)"/>
<path d="M0 0 C0.99 0 1.98 0 3 0 C2.67 4.95 2.34 9.9 2 15 C1.34 15 0.68 15 0 15 C0 10.05 0 5.1 0 0 Z " fill="#EEEFEF" transform="translate(0,45)"/>
<path d="M0 0 C3.63 0 7.26 0 11 0 C7.12788877 2.90408342 4.59682146 3.85079464 0 5 C0 3.35 0 1.7 0 0 Z " fill="#F7F9FB" transform="translate(225,105)"/>
<path d="M0 0 C2.31 0 4.62 0 7 0 C7 2.31 7 4.62 7 7 C6.01 6.67 5.02 6.34 4 6 C4 5.34 4 4.68 4 4 C2.68 3.34 1.36 2.68 0 2 C0 1.34 0 0.68 0 0 Z " fill="#EFF3FB" transform="translate(23,75)"/>
<path d="M0 0 C5.28 0 10.56 0 16 0 C16 0.33 16 0.66 16 1 C12.7 1 9.4 1 6 1 C6.33 1.99 6.66 2.98 7 4 C5.35 4 3.7 4 2 4 C1.34 2.68 0.68 1.36 0 0 Z " fill="#F2F4F4" transform="translate(54,144)"/>
<path d="M0 0 C1.32 0.33 2.64 0.66 4 1 C4 2.65 4 4.3 4 6 C2.68 6.33 1.36 6.66 0 7 C-0.66 5.68 -1.32 4.36 -2 3 C-1.34 2.01 -0.68 1.02 0 0 Z " fill="#7A7B7E" transform="translate(98,122)"/>
<path d="M0 0 C3.96 1.98 3.96 1.98 8 4 C7.67 4.66 7.34 5.32 7 6 C4.69 6 2.38 6 0 6 C0 4.02 0 2.04 0 0 Z " fill="#E1E5ED" transform="translate(60,24)"/>
<path d="M0 0 C1.32 0 2.64 0 4 0 C3.375 7.625 3.375 7.625 0 11 C0 7.37 0 3.74 0 0 Z " fill="#DDE3EC" transform="translate(75,64)"/>
<path d="M0 0 C2 1.1875 2 1.1875 4 3 C4.25 5.6875 4.25 5.6875 4 8 C2.68 8.33 1.36 8.66 0 9 C0 6.03 0 3.06 0 0 Z " fill="#FCF4E1" transform="translate(255,141)"/>
<path d="M0 0 C2.64 0 5.28 0 8 0 C8 1.98 8 3.96 8 6 C6.66402348 5.19185349 5.331275 4.37836819 4 3.5625 C3.2575 3.11003906 2.515 2.65757813 1.75 2.19140625 C1.1725 1.79824219 0.595 1.40507813 0 1 C0 0.67 0 0.34 0 0 Z " fill="#FDF9F1" transform="translate(202,45)"/>
<path d="M0 0 C1.32 0 2.64 0 4 0 C4.66 1.98 5.32 3.96 6 6 C4.02 6 2.04 6 0 6 C0 4.02 0 2.04 0 0 Z " fill="#EBECEC" transform="translate(30,144)"/>
<path d="M0 0 C1.65 0.33 3.3 0.66 5 1 C4.67 2.32 4.34 3.64 4 5 C2.02 5 0.04 5 -2 5 C-1.34 3.35 -0.68 1.7 0 0 Z " fill="#FBF7F7" transform="translate(326,55)"/>
<path d="M0 0 C0.99 0.33 1.98 0.66 3 1 C3.33 3.64 3.66 6.28 4 9 C3.01 8.67 2.02 8.34 1 8 C-0.35439668 5.29120665 -0.06501451 2.99066732 0 0 Z " fill="#F9FAFA" transform="translate(237,74)"/>
<path d="M0 0 C3.79588866 0.54226981 5.47211993 2.20127563 8 5 C5.36 4.67 2.72 4.34 0 4 C0 2.68 0 1.36 0 0 Z " fill="#F7F1E3" transform="translate(195,56)"/>
<path d="M0 0 C2.0625 0.4375 2.0625 0.4375 4 1 C4 2.65 4 4.3 4 6 C1 5 1 5 -0.1875 2.9375 C-0.5896875 1.9784375 -0.5896875 1.9784375 -1 1 C-0.67 0.67 -0.34 0.34 0 0 Z " fill="#FBBA31" transform="translate(197,137)"/>
<path d="M0 0 C1.32 0 2.64 0 4 0 C4 1.32 4 2.64 4 4 C2.02 4 0.04 4 -2 4 C-1.34 2.68 -0.68 1.36 0 0 Z " fill="#FAF0EF" transform="translate(341,71)"/>
<path d="M0 0 C0.99 0.33 1.98 0.66 3 1 C2.34 1 1.68 1 1 1 C1 2.32 1 3.64 1 5 C-0.65 5 -2.3 5 -4 5 C-2.68 3.35 -1.36 1.7 0 0 Z " fill="#FAF8F7" transform="translate(119,55)"/>
</svg>
